<?xml version="1.0" encoding="utf-8"?>
<!-- Generator: Adobe Illustrator 16.0.1, SVG Export Plug-In . SVG Version: 6.00 Build 0)  -->
<!DOCTYPE svg PUBLIC "-//W3C//DTD SVG 1.1//EN" "http://www.w3.org/Graphics/SVG/1.1/DTD/svg11.dtd">
<svg version="1.1" xmlns="http://www.w3.org/2000/svg" xmlns:xlink="http://www.w3.org/1999/xlink" x="0px" y="0px" width="32px"
	 height="32px" viewBox="0 0 32 32" enable-background="new 0 0 32 32" xml:space="preserve">
<g id="Layer_1" display="none">
	<polyline display="inline" fill="none" stroke="#000000" stroke-width="0.05" stroke-miterlimit="10" points="26.642,19.561 
		26.642,0.932 5.333,0.932 5.333,31.064 26.642,31.064 26.642,19.561 	"/>
	<polyline display="inline" fill="none" stroke="#000000" stroke-width="0.05" stroke-miterlimit="10" points="12.424,26.652 
		31.053,26.652 31.053,5.344 0.921,5.344 0.921,26.652 12.424,26.652 	"/>
	
		<line display="inline" fill="none" stroke="#000000" stroke-width="0.05" stroke-miterlimit="10" x1="5.333" y1="26.652" x2="26.642" y2="5.344"/>
	
		<line display="inline" fill="none" stroke="#000000" stroke-width="0.05" stroke-miterlimit="10" x1="5.333" y1="5.344" x2="26.642" y2="26.652"/>
	
		<line display="inline" fill="none" stroke="#000000" stroke-width="0.05" stroke-miterlimit="10" x1="15.985" y1="31.064" x2="15.985" y2="0.932"/>
	
		<line display="inline" fill="none" stroke="#000000" stroke-width="0.05" stroke-miterlimit="10" x1="0.919" y1="15.998" x2="31.051" y2="15.998"/>
	
		<circle display="inline" fill="none" stroke="#000000" stroke-width="0.05" stroke-miterlimit="10" cx="15.985" cy="15.997" r="15.066"/>
	
		<circle display="inline" fill="none" stroke="#000000" stroke-width="0.05" stroke-miterlimit="10" cx="15.985" cy="15.997" r="10.657"/>
	
		<line display="inline" fill="none" stroke="#000000" stroke-width="0.05" stroke-miterlimit="10" x1="12.083" y1="30.553" x2="30.54" y2="12.093"/>
	
		<line display="inline" fill="none" stroke="#000000" stroke-width="0.05" stroke-miterlimit="10" x1="1.434" y1="19.915" x2="19.901" y2="1.446"/>
	
		<line display="inline" fill="none" stroke="#000000" stroke-width="0.05" stroke-miterlimit="10" x1="1.431" y1="12.096" x2="19.887" y2="30.551"/>
	
		<line display="inline" fill="none" stroke="#000000" stroke-width="0.05" stroke-miterlimit="10" x1="12.067" y1="1.447" x2="30.536" y2="19.916"/>
</g>
<g id="BG" display="none">
	<circle display="inline" fill="#EDBA55" cx="15.985" cy="15.997" r="15.066"/>
	<path display="inline" fill="#EFCB8E" d="M0.919,15.997c0-8.319,6.744-15.064,15.065-15.064c8.319,0,15.066,6.745,15.066,15.064"/>
</g>
<g id="Layer_2" display="none">
	<rect x="13.562" y="19.418" display="inline" fill="#2D2D2D" width="4.854" height="4.855"/>
	<rect x="19.405" y="19.418" display="inline" fill="#2D2D2D" width="4.855" height="4.855"/>
	<rect x="7.716" y="19.418" display="inline" fill="#2D2D2D" width="4.854" height="4.855"/>
</g>
<g id="Layer_3" display="none">
	<g display="inline">
		<path fill="#2D2D2D" d="M25.556,12.037c0-5.283-4.282-9.568-9.567-9.568c-5.286,0-9.569,4.285-9.569,9.568
			c0,1.761,0.483,3.403,1.313,4.821l-0.015-0.004L7.879,17.1c0.088,0.143,0.178,0.283,0.275,0.42l7.83,12.006l7.911-12.107
			c0.02-0.033,0.045-0.068,0.066-0.1l0.179-0.273l-0.018,0.004C25.026,15.591,25.556,13.876,25.556,12.037z M15.999,15.681
			c-2.014,0-3.646-1.631-3.646-3.645s1.632-3.647,3.646-3.647c2.013,0,3.644,1.634,3.644,3.647S18.012,15.681,15.999,15.681z"/>
	</g>
</g>
<g id="Layer_5" display="none">
	<g display="inline">
		<g>
			<g>
				<polygon fill="#666765" points="15.713,18.588 14.916,18.375 18.41,5.476 19.205,5.694 				"/>
			</g>
		</g>
	</g>
	<g display="inline">
		<g>
			<g>
				<path fill="#666765" d="M21.254,5.175c5.97,2.905,8.461,10.125,5.555,16.093c-2.906,5.967-10.125,8.459-16.094,5.553
					c-5.967-2.906-8.457-10.125-5.553-16.093C8.068,4.76,15.287,2.27,21.254,5.175 M21.434,4.802
					C15.252,1.793,7.801,4.363,4.791,10.546c-3.01,6.184-0.439,13.635,5.744,16.646c6.182,3.01,13.635,0.438,16.646-5.744
					C30.19,15.265,27.616,7.812,21.434,4.802L21.434,4.802z"/>
			</g>
		</g>
	</g>
</g>
<g id="Layer_7" display="none">
	<path display="inline" opacity="0.3" fill="#DD82B3" d="M17.502,4.561V3.648h-3.035v0.913c-5.622,0.747-9.979,5.56-9.979,11.382
		c0,6.339,5.157,11.497,11.496,11.497S27.48,22.282,27.48,15.943C27.48,10.121,23.124,5.308,17.502,4.561z"/>
</g>
<g id="Layer_4" display="none">
	<g display="inline">
		<path opacity="0.6" fill="#9B9A9A" d="M27.896,11.577c0-0.55-0.45-1-1-1H5.104c-0.55,0-1,0.45-1,1v10.907c0,0.55,0.45,1,1,1
			h21.792c0.55,0,1-0.45,1-1V11.577z"/>
	</g>
</g>
<g id="Layer_8" display="none">
	<g display="inline">
		<path fill="#2D2D2D" d="M21.312,17.904H10.659v8.321c1.568,0.908,3.384,1.436,5.326,1.436c1.943,0,3.758-0.528,5.327-1.436V17.904
			z"/>
	</g>
</g>
<g id="Layer_9" display="none">
	<path display="inline" fill="#9B9A9A" d="M26.253,9.409c-0.071,0-0.134,0-0.19,0c-0.098,0-0.166,0-0.166,0H12.939l0.023,1.28
		l-1.398-0.001V9.781H8.625v0.903l-0.799-0.001V9.126H6.545v1.556l-0.67-0.001v0.001c-0.053,0-0.132,0-0.24,0
		c-0.166,0-0.303,0.224-0.303,0.499v11.904c0,0.275,0.146,0.5,0.323,0.5c0.085,0,0.161,0,0.22,0c0.062,0,0.104,0,0.104,0h19.855
		c0,0,0.094,0,0.229,0c0.049,0,0.102,0,0.159,0c0.214,0,0.389-0.225,0.389-0.5V9.909C26.61,9.634,26.449,9.409,26.253,9.409z"/>
</g>
<g id="Layer_10" display="none">
	<path display="inline" fill="#9B9A9A" d="M24.889,26.125v-0.48c-0.275,0-0.5-0.229-0.5-0.508s0.225-0.508,0.5-0.508v-0.508
		c-0.275,0-0.5-0.229-0.5-0.508s0.225-0.508,0.5-0.508v-0.508c-0.275,0-0.5-0.229-0.5-0.508s0.225-0.508,0.5-0.508v-0.508
		c-0.275,0-0.5-0.229-0.5-0.508s0.225-0.508,0.5-0.508v-0.508c-0.275,0-0.5-0.229-0.5-0.508s0.225-0.508,0.5-0.508v-0.508
		c-0.275,0-0.5-0.229-0.5-0.508s0.225-0.508,0.5-0.508v-0.508c-0.275,0-0.5-0.229-0.5-0.508s0.225-0.508,0.5-0.508V14.98
		c-0.275,0-0.5-0.229-0.5-0.508s0.225-0.508,0.5-0.508v-0.508c-0.275,0-0.5-0.229-0.5-0.508s0.225-0.508,0.5-0.508v-0.508
		c-0.275,0-0.5-0.229-0.5-0.508c0-0.28,0.225-0.508,0.5-0.508v-0.508c-0.275,0-0.5-0.229-0.5-0.508s0.225-0.508,0.5-0.508V8.886
		c-0.275,0-0.5-0.229-0.5-0.508s0.225-0.508,0.5-0.508V7.362c-0.275,0-0.5-0.229-0.5-0.508s0.225-0.508,0.5-0.508V5.837
		c-0.023,0.003-0.044,0.014-0.068,0.014c-0.269,0-0.488-0.221-0.497-0.492h-0.216c-0.009,0.268-0.231,0.484-0.505,0.484
		s-0.496-0.217-0.505-0.484h-0.514c-0.009,0.268-0.231,0.484-0.505,0.484s-0.496-0.217-0.505-0.484h-0.514
		c-0.009,0.268-0.231,0.484-0.505,0.484s-0.496-0.217-0.505-0.484h-0.514c-0.009,0.268-0.231,0.484-0.505,0.484
		s-0.496-0.217-0.505-0.484h-0.514c-0.009,0.268-0.231,0.484-0.505,0.484s-0.496-0.217-0.505-0.484h-0.515
		c-0.009,0.268-0.23,0.484-0.504,0.484s-0.496-0.217-0.504-0.484h-0.515c-0.009,0.268-0.23,0.484-0.504,0.484
		s-0.496-0.217-0.504-0.484h-0.515c-0.009,0.268-0.23,0.484-0.504,0.484s-0.496-0.217-0.504-0.484h-0.515
		c-0.009,0.268-0.23,0.484-0.505,0.484c-0.273,0-0.496-0.217-0.504-0.484h-0.515c-0.009,0.268-0.231,0.484-0.504,0.484
		S9.395,5.627,9.386,5.359H8.872C8.863,5.627,8.641,5.844,8.367,5.844S7.872,5.627,7.863,5.359H7.61
		C7.601,5.631,7.382,5.852,7.113,5.852v0.495c0.275,0,0.5,0.229,0.5,0.508s-0.225,0.508-0.5,0.508V7.87c0.275,0,0.5,0.229,0.5,0.508
		s-0.225,0.508-0.5,0.508v0.508c0.275,0,0.5,0.229,0.5,0.508s-0.225,0.508-0.5,0.508v0.508c0.275,0,0.5,0.229,0.5,0.508
		c0,0.279-0.225,0.508-0.5,0.508v0.508c0.275,0,0.5,0.229,0.5,0.508s-0.225,0.508-0.5,0.508v0.508c0.275,0,0.5,0.229,0.5,0.508
		s-0.225,0.508-0.5,0.508v0.508c0.275,0,0.5,0.229,0.5,0.508s-0.225,0.508-0.5,0.508v0.508c0.275,0,0.5,0.229,0.5,0.508
		s-0.225,0.508-0.5,0.508v0.508c0.275,0,0.5,0.229,0.5,0.508s-0.225,0.508-0.5,0.508v0.508c0.275,0,0.5,0.229,0.5,0.508
		s-0.225,0.508-0.5,0.508v0.508c0.275,0,0.5,0.229,0.5,0.508s-0.225,0.508-0.5,0.508v0.508c0.275,0,0.5,0.229,0.5,0.508
		s-0.225,0.508-0.5,0.508v0.508c0.275,0,0.5,0.229,0.5,0.508s-0.225,0.508-0.5,0.508v0.494c0.023-0.003,0.044-0.014,0.068-0.014
		c0.275,0,0.5,0.229,0.5,0.508h0.178c0-0.275,0.229-0.5,0.508-0.5s0.508,0.225,0.508,0.5h0.508c0-0.275,0.229-0.5,0.508-0.5
		s0.508,0.225,0.508,0.5h0.508c0-0.275,0.229-0.5,0.508-0.5c0.28,0,0.508,0.225,0.508,0.5h0.508c0-0.275,0.229-0.5,0.508-0.5
		s0.508,0.225,0.508,0.5h0.508c0-0.275,0.229-0.5,0.508-0.5s0.508,0.225,0.508,0.5h0.508c0-0.275,0.229-0.5,0.508-0.5
		s0.508,0.225,0.508,0.5h0.508c0-0.275,0.229-0.5,0.508-0.5s0.508,0.225,0.508,0.5h0.508c0-0.275,0.229-0.5,0.508-0.5
		s0.508,0.225,0.508,0.5h0.508c0-0.275,0.229-0.5,0.508-0.5s0.508,0.225,0.508,0.5h0.508c0-0.275,0.229-0.5,0.508-0.5
		s0.508,0.225,0.508,0.5h0.508c0-0.275,0.229-0.5,0.508-0.5s0.508,0.225,0.508,0.5h0.278C24.389,26.354,24.614,26.125,24.889,26.125
		z"/>
</g>
<g id="Layer_11" display="none">
	<polygon display="inline" fill="#DD82B3" points="10.033,19.35 18.192,11.191 18.62,11.621 10.72,19.522 	"/>
	<polygon display="inline" fill="#DD82B3" points="19.241,12.244 20.979,13.979 13.086,21.874 11.792,21.502 11.355,20.133 	"/>
	
		<rect x="23.454" y="6.351" transform="matrix(0.7083 -0.7059 0.7059 0.7083 1.0963 19.2702)" display="inline" fill="#DD82B3" width="0.822" height="3.916"/>
</g>
<g id="Layer_12" display="none">
	<polygon display="inline" fill="#DD82B3" points="25.449,9.073 22.698,6.321 18.723,9.324 18.727,9.328 18.163,8.765 
		15.471,11.455 5.054,16.475 6.252,19.841 6.807,20.396 5.764,21.438 5.77,21.444 5.92,22.686 6.203,22.967 5.384,23.786 
		6.459,24.862 6.62,24.705 7.938,24.703 8.314,25.078 8.187,25.467 8.162,25.471 8.167,25.521 7.845,26.49 8.568,26.73 
		8.754,26.165 10.225,25.993 10.326,26.002 10.33,26.006 10.358,25.979 10.378,25.975 10.376,25.956 11.373,24.959 11.599,25.187 
		11.6,25.187 15.292,26.691 20.315,16.298 23.007,13.607 22.49,13.092 	"/>
</g>
<g id="Layer_13" display="none">
	<rect x="5.347" y="7.396" display="inline" fill="#DD82B3" width="21.305" height="4.812"/>
</g>
<g id="Layer_14" display="none">
	<circle display="inline" fill="#DD82B3" cx="15.985" cy="15.998" r="10.594"/>
</g>
<g id="Layer_15" display="none">
	<path display="inline" fill="#DD82B3" d="M26.637,22.529c0,0.55-0.45,1-1,1H6.333c-0.55,0-1-0.45-1-1V9.309c0-0.55,0.45-1,1-1
		h19.304c0.55,0,1,0.45,1,1V22.529z"/>
	<g display="inline">
		<path opacity="0.5" fill="#666765" d="M5.933,8.396C5.664,8.514,5.471,8.751,5.388,9.037C5.562,8.816,5.746,8.605,5.933,8.396z"/>
	</g>
</g>
<g id="Layer_16" display="none">
	<g display="inline">
		<path fill="#9B9A9A" d="M26.642,24.212c0,0.55-0.45,1-1,1H6.328c-0.55,0-1-0.45-1-1V7.87c0-0.55,0.45-1,1-1h19.313
			c0.55,0,1,0.45,1,1V24.212z"/>
	</g>
</g>
<g id="Layer_17" display="none">
	<g display="inline">
		<path fill="#666765" d="M26.095,21.322c0.48-1.215,0.753-2.533,0.753-3.92c0-5.882-4.77-10.652-10.652-10.652
			c-5.887,0-10.656,4.77-10.656,10.652c0,1.387,0.272,2.705,0.754,3.92H26.095z"/>
	</g>
</g>
<g id="Layer_18" display="none">
	
		<line display="inline" fill="none" stroke="#2D2D2D" stroke-width="2" stroke-miterlimit="10" x1="5.328" y1="23.5" x2="26.642" y2="23.5"/>
	<rect x="13.796" y="10.67" display="inline" fill="#2D2D2D" width="4.407" height="10.654"/>
	<rect x="6.734" y="14.542" display="inline" fill="#2D2D2D" width="4.407" height="6.783"/>
</g>
<g id="Layer_19" display="none">
	<path display="inline" fill="#9B9A9A" d="M15.985,5.404c-5.851,0-10.594,4.742-10.594,10.594c0,5.851,4.743,10.593,10.594,10.593
		c5.849,0,10.593-4.742,10.593-10.593C26.578,10.146,21.834,5.404,15.985,5.404z M15.984,22.043c-3.339,0-6.047-2.705-6.047-6.046
		s2.708-6.049,6.047-6.049c3.339,0,6.047,2.708,6.047,6.049S19.323,22.043,15.984,22.043z"/>
</g>
<g id="Layer_20" display="none">
	<rect x="10.125" y="24.562" display="inline" fill="#666765" width="11.939" height="3.812"/>
	<rect x="10.125" y="3.561" display="inline" fill="#666765" width="11.939" height="3.564"/>
</g>
<g id="Layer_21">
	<g>
		<path fill="#2D2D2D" d="M15.723,16.498l0.01-0.017c-0.014-0.006-0.033-0.003-0.046-0.011L6.59,11.014
			c-0.799,1.486-1.255,3.181-1.255,4.984c0,5.851,4.774,10.593,10.665,10.593c3.736,0,7.019-1.913,8.923-4.803L15.723,16.498z"/>
	</g>
	<path fill="none" stroke="#2D2D2D" stroke-miterlimit="10" d="M27.16,21.828c0.832-1.567,1.33-3.332,1.422-5.205"/>
	<path fill="none" stroke="#2D2D2D" stroke-miterlimit="10" d="M17.998,16.593"/>
	<path fill="none" stroke="#2D2D2D" stroke-miterlimit="10" d="M28.586,15.441c-0.287-6.468-5.5-11.649-12.006-11.942"/>
	<path fill="none" stroke="#2D2D2D" stroke-miterlimit="10" d="M16.564,15.469"/>
	<path fill="none" stroke="#2D2D2D" stroke-miterlimit="10" d="M15.397,3.501c-4.141,0.195-7.759,2.362-9.912,5.591"/>
</g>
<g id="Layer_22" display="none">
	<path display="inline" fill="#2D2D2D" d="M22.994,13.6l6.89,3.445l-5.35,2.672l-6.878-3.445L22.994,13.6z M10.014,10.155
		l6.113-3.015v2.654l-3.821,1.911v9.914l-2.292,1.15V10.155z M6.944,10.557L8.51,9.794L8.48,11.749l0.005-0.363v7.958l-1.54,0.768
		L6.944,10.557z M13.822,12.448l4.609-2.292v1.552l-3.069,1.568v9.49l-1.541,0.764L13.822,12.448z M16.892,13.975l6.137-3.056V22
		l-6.137,3.057V13.975z"/>
</g>
</svg>
