<?xml version="1.0" encoding="utf-8"?>
<!-- Generator: Adobe Illustrator 16.0.1, SVG Export Plug-In . SVG Version: 6.00 Build 0)  -->
<!DOCTYPE svg PUBLIC "-//W3C//DTD SVG 1.1//EN" "http://www.w3.org/Graphics/SVG/1.1/DTD/svg11.dtd">
<svg version="1.1" xmlns="http://www.w3.org/2000/svg" xmlns:xlink="http://www.w3.org/1999/xlink" x="0px" y="0px" width="32px"
	 height="32px" viewBox="0 0 32 32" enable-background="new 0 0 32 32" xml:space="preserve">
<g id="Layer_1" display="none">
</g>
<g id="BG" display="none">
</g>
<g id="Layer_2" display="none">
	<rect x="13.562" y="7.734" display="inline" fill="#9B9A9A" width="4.854" height="4.854"/>
	<rect x="19.405" y="7.734" display="inline" fill="#9B9A9A" width="4.855" height="4.854"/>
	<rect x="7.716" y="7.734" display="inline" fill="#9B9A9A" width="4.854" height="4.854"/>
</g>
<g id="Layer_3" display="none">
	<path display="inline" fill="#9B9A9A" d="M19.643,12.022L19.643,12.022c0,2.016-1.631,3.647-3.644,3.647
		c-2.014,0-3.646-1.632-3.646-3.647l0,0h-1.122c0,2.64,2.135,4.779,4.768,4.779c2.63,0,4.767-2.14,4.767-4.779H19.643z"/>
</g>
<g id="Layer_5">
	<g>
		<path fill="#DD82B3" d="M15.986,15.997"/>
	</g>
	<g>
		<g>
			<path fill="#DD82B3" d="M16.008,3.96c6.638,0.006,12.033,5.411,12.027,12.046c-0.006,6.638-5.41,12.035-12.048,12.028
				S3.955,22.625,3.961,15.986C3.966,9.349,9.371,3.955,16.008,3.96 M16.01,3.547C9.131,3.541,3.553,9.111,3.547,15.985
				C3.541,22.861,9.11,28.44,15.987,28.448c6.873,0.005,12.456-5.563,12.46-12.44C28.455,9.132,22.884,3.553,16.01,3.547
				L16.01,3.547z"/>
		</g>
	</g>
	<g>
		<path fill="#DD82B3" d="M21.721,10.222c-0.486-0.482-1.271-0.479-1.754,0.009c-0.433,0.435-0.472,1.111-0.125,1.594l-3.725,3.763
			c-0.039-0.011-0.076-0.024-0.118-0.024c-0.239,0-0.436,0.195-0.436,0.436c0,0.042,0.013,0.082,0.024,0.121l-1.555,1.571
			l0.294,0.29l1.558-1.572c0.037,0.011,0.074,0.022,0.114,0.022c0.239,0,0.435-0.194,0.435-0.433c0-0.043-0.012-0.082-0.023-0.121
			l3.726-3.764c0.487,0.342,1.163,0.296,1.596-0.14C22.213,11.489,22.207,10.704,21.721,10.222z"/>
	</g>
</g>
<g id="Layer_7" display="none">
	<path display="inline" opacity="0.3" fill="#9B9A9A" d="M26.899,12.373L15.883,16.27l1.306,1.314l-5.708,2.859l1.57-3.171
		l-7.799,2.759c1.653,4.323,5.834,7.408,10.732,7.408c6.339,0,11.496-5.157,11.496-11.497C27.48,14.695,27.27,13.498,26.899,12.373z
		"/>
</g>
<g id="Layer_4" display="none">
	<g display="inline" opacity="0.3">
		<polygon fill="#666765" points="22.891,15 22.891,19.038 26.129,19.038 26.129,13.817 		"/>
		<path fill="#666765" d="M26.958,12.515L26.958,12.515l-0.329,0.12v6.404v0.5h-0.5h-3.238h-0.5v-0.5v-4.856l-4.562,1.666
			c0.188,0.134,0.319,0.343,0.319,0.592c0,0.408-0.332,0.74-0.74,0.74c-0.409,0-0.741-0.332-0.741-0.74
			c0-0.064,0.021-0.122,0.037-0.181l-12.6,4.6v1v0.625c0,0.55,0.451,1,1,1h21.793c0.55,0,1-0.45,1-1v-9.312v-1L26.958,12.515z
			 M17.282,21.66c-0.294,0-0.532-0.238-0.532-0.531c0-0.294,0.238-0.532,0.532-0.532c0.293,0,0.532,0.238,0.532,0.532
			C17.814,21.422,17.575,21.66,17.282,21.66z M17.407,19.515c-0.409,0-0.741-0.332-0.741-0.74c0-0.409,0.332-0.74,0.741-0.74
			c0.408,0,0.74,0.331,0.74,0.74C18.147,19.183,17.815,19.515,17.407,19.515z M18.681,21.66c-0.294,0-0.533-0.238-0.533-0.531
			c0-0.294,0.239-0.532,0.533-0.532c0.293,0,0.532,0.238,0.532,0.532C19.213,21.422,18.974,21.66,18.681,21.66z M19.954,21.66
			c-0.294,0-0.533-0.238-0.533-0.531c0-0.294,0.239-0.532,0.533-0.532c0.293,0,0.532,0.238,0.532,0.532
			C20.486,21.422,20.247,21.66,19.954,21.66z M21.159,21.66c-0.294,0-0.533-0.238-0.533-0.531c0-0.294,0.239-0.532,0.533-0.532
			c0.293,0,0.532,0.238,0.532,0.532C21.691,21.422,21.452,21.66,21.159,21.66z M22.387,21.66c-0.294,0-0.533-0.238-0.533-0.531
			c0-0.294,0.239-0.532,0.533-0.532c0.293,0,0.532,0.238,0.532,0.532C22.919,21.422,22.68,21.66,22.387,21.66z M24.574,22.416
			c-0.711,0-1.288-0.576-1.288-1.287s0.577-1.287,1.288-1.287s1.287,0.576,1.287,1.287S25.285,22.416,24.574,22.416z"/>
	</g>
</g>
<g id="Layer_8" display="none">
	<g display="inline" opacity="0.2">
		<path fill="#DD82B3" d="M11.092,16.468h4.391V9H9.985v17.97c3.681,2.021,8.315,2.021,11.999,0V9h-5.502v7.468h4.4
			c0.276,0,0.5,0.224,0.5,0.5s-0.224,0.5-0.5,0.5h-9.791c-0.277,0-0.5-0.224-0.5-0.5S10.814,16.468,11.092,16.468z"/>
	</g>
	<path display="inline" opacity="0.2" fill="#DD82B3" d="M15.289,5.785h1.42c0.274,0,0.414,0.208,0.309,0.462l-0.846,2.038
		c-0.105,0.254-0.275,0.253-0.377-0.002l-0.818-2.034C14.873,5.994,15.015,5.785,15.289,5.785z"/>
</g>
<g id="Layer_9" display="none">
	<path display="inline" fill="#DD82B3" d="M12.385,18.504c0-1.571,0.789-2.955,1.988-3.788H8.555v0c0,0.554-0.449,1.005-1.006,1.005
		s-1.004-0.451-1.004-1.005v0H5.938H5.59h-0.5c-0.274,0-0.5,0.225-0.5,0.5v6.638c0,0.275,0.226,0.5,0.5,0.5h0.5h0.369h8.502
		C13.212,21.527,12.385,20.114,12.385,18.504z M9.311,19.509c-0.556,0-1.004-0.451-1.004-1.005c0-0.557,0.448-1.006,1.004-1.006
		c0.557,0,1.006,0.449,1.006,1.006C10.316,19.058,9.867,19.509,9.311,19.509z"/>
	<path display="inline" fill="#DD82B3" d="M5.438,11.682c0,0-0.066,0-0.163,0c-0.073,0-0.161,0-0.261,0
		c-0.232,0-0.424,0.225-0.424,0.5v1.207c0,0.275,0.191,0.5,0.424,0.5c0.1,0,0.188,0,0.261,0c0.097,0,0.163,0,0.163,0h0.75v-2.207
		H5.438z"/>
	<path display="inline" fill="#DD82B3" d="M26.951,11.651c-0.064,0-0.125,0-0.18,0c-0.147,0-0.251,0-0.251,0H25.75v2.207h0.854
		c0,0,0.068,0,0.168,0c0.062,0,0.137,0,0.221,0c0.214,0,0.389-0.225,0.389-0.5v-1.207C27.381,11.876,27.188,11.651,26.951,11.651z"
		/>
	<path display="inline" fill="#DD82B3" d="M26.912,14.716h-0.5h-0.996h-5.788c1.199,0.833,1.987,2.217,1.987,3.788
		c0,1.61-0.827,3.023-2.076,3.85h5.898h0.975h0.5c0.275,0,0.5-0.225,0.5-0.5v-6.638C27.412,14.941,27.188,14.716,26.912,14.716z"/>
	<circle display="inline" fill="#DD82B3" cx="16.971" cy="12.093" r="1.299"/>
</g>
<g id="Layer_10" display="none">
	<path display="inline" opacity="0.5" fill="#666765" d="M24.873,13.964v-0.4l-17.775,6.49v0.004c0.274,0,0.5,0.229,0.5,0.508
		s-0.226,0.508-0.5,0.508v0.508c0.274,0,0.5,0.229,0.5,0.508s-0.226,0.508-0.5,0.508v0.508c0.274,0,0.5,0.229,0.5,0.508
		s-0.226,0.508-0.5,0.508v0.508c0.274,0,0.5,0.229,0.5,0.508s-0.226,0.508-0.5,0.508v0.494c0.023-0.003,0.043-0.014,0.068-0.014
		c0.274,0,0.5,0.229,0.5,0.508h0.178c0-0.275,0.229-0.5,0.508-0.5s0.508,0.225,0.508,0.5h0.508c0-0.275,0.229-0.5,0.508-0.5
		s0.508,0.225,0.508,0.5h0.508c0-0.275,0.229-0.5,0.508-0.5s0.508,0.225,0.508,0.5h0.508c0-0.275,0.229-0.5,0.508-0.5
		s0.508,0.225,0.508,0.5h0.508c0-0.275,0.229-0.5,0.508-0.5s0.508,0.225,0.508,0.5h0.508c0-0.275,0.229-0.5,0.508-0.5
		s0.508,0.225,0.508,0.5h0.509c0-0.275,0.229-0.5,0.508-0.5s0.508,0.225,0.508,0.5h0.508c0-0.275,0.229-0.5,0.508-0.5
		s0.508,0.225,0.508,0.5h0.508c0-0.275,0.229-0.5,0.508-0.5s0.508,0.225,0.508,0.5h0.508c0-0.275,0.229-0.5,0.508-0.5
		s0.508,0.225,0.508,0.5h0.508c0-0.275,0.229-0.5,0.508-0.5s0.508,0.225,0.508,0.5h0.278c0-0.279,0.226-0.508,0.5-0.508v-0.48
		c-0.275,0-0.5-0.229-0.5-0.508s0.225-0.508,0.5-0.508v-0.508c-0.275,0-0.5-0.229-0.5-0.508s0.225-0.508,0.5-0.508v-0.508
		c-0.275,0-0.5-0.229-0.5-0.508s0.225-0.508,0.5-0.508v-0.508c-0.275,0-0.5-0.229-0.5-0.508s0.225-0.508,0.5-0.508v-0.508
		c-0.275,0-0.5-0.229-0.5-0.508s0.225-0.508,0.5-0.508v-0.508c-0.275,0-0.5-0.229-0.5-0.508s0.225-0.508,0.5-0.508v-0.508
		c-0.275,0-0.5-0.229-0.5-0.508s0.225-0.508,0.5-0.508V14.98c-0.275,0-0.5-0.229-0.5-0.508S24.598,13.964,24.873,13.964z"/>
</g>
<g id="Layer_11" display="none">
	<path display="inline" fill="#2D2D2D" d="M7.868,24.303l0.611-1.9c0.335,0.033,0.651,0.183,0.898,0.423
		c0.233,0.231,0.374,0.534,0.416,0.854L7.868,24.303z"/>
</g>
<g id="Layer_12" display="none">
	<path display="inline" fill="#9B9A9A" d="M18.055,19.096 M6.74,20.768l0.451,0.451l-0.637,0.639l-0.449-0.453L6.74,20.768z
		 M7.379,21.404l0.45,0.451l-0.638,0.639L6.74,22.043L7.379,21.404z M8.014,22.043l0.451,0.452l-0.637,0.636l-0.451-0.449
		L8.014,22.043z M8.654,22.68l0.449,0.451l-0.639,0.637l-0.451-0.451L8.654,22.68z M9.291,23.316l0.449,0.451l-0.637,0.638
		l-0.449-0.449L9.291,23.316z M9.928,23.954l0.451,0.448l-0.638,0.643l-0.45-0.453L9.928,23.954z M10.565,24.592l0.449,0.451
		l-0.636,0.637l-0.451-0.451L10.565,24.592z"/>
	<polyline display="inline" fill="#9B9A9A" points="17.621,18.662 14.932,15.973 15.832,15.071 18.523,17.76 17.621,18.662 	"/>
	
		<rect x="13.301" y="17.752" transform="matrix(-0.7074 -0.7068 0.7068 -0.7074 12.9605 42.1448)" display="inline" fill="#9B9A9A" width="3.804" height="1.276"/>
</g>
<g id="Layer_13" display="none">
	<rect x="5.308" y="14.123" display="inline" fill="none" width="21.334" height="7.625"/>
	<text transform="matrix(1 0 0 1 9.9746 21.1221)" display="inline" fill="#2D2D2D" font-family="'PTMono-Regular'" font-size="10">31</text>
</g>
<g id="Layer_14" display="none">
	<circle display="inline" fill="#666765" cx="9.896" cy="13.52" r="1.055"/>
	<circle display="inline" fill="#666765" cx="13.729" cy="9.895" r="1.055"/>
	<circle display="inline" fill="#666765" cx="9.896" cy="18.52" r="1.055"/>
</g>
<g id="Layer_15" display="none">
	<rect x="5.328" y="10.583" display="inline" fill="#2D2D2D" width="21.264" height="3.021"/>
</g>
<g id="Layer_16" display="none">
	<circle display="inline" fill="#DD82B3" cx="24.688" cy="8.213" r="0.624"/>
	<circle display="inline" fill="#DD82B3" cx="22.908" cy="8.213" r="0.624"/>
	<circle display="inline" fill="#DD82B3" cx="21.128" cy="8.213" r="0.624"/>
	<rect x="6.875" y="10.938" display="inline" fill="#DD82B3" width="8.875" height="12.75"/>
</g>
<g id="Layer_17" display="none">
	<g display="inline">
		<g>
			<path fill="#2D2D2D" d="M16.195,7.75c5.322,0,9.652,4.33,9.652,9.652c0,0.99-0.153,1.97-0.457,2.92H6.997
				c-0.305-0.95-0.458-1.929-0.458-2.92C6.539,12.08,10.871,7.75,16.195,7.75 M16.195,6.75c-5.887,0-10.656,4.77-10.656,10.652
				c0,1.387,0.272,2.705,0.754,3.92h19.802c0.48-1.215,0.753-2.533,0.753-3.92C26.848,11.52,22.078,6.75,16.195,6.75L16.195,6.75z"
				/>
		</g>
	</g>
	<path display="inline" fill="#2D2D2D" d="M21.702,11.482l-0.801-0.598l-4.405,5.909c-0.161-0.055-0.332-0.091-0.512-0.091
		c-0.89,0-1.612,0.724-1.612,1.612c0,0.891,0.723,1.612,1.612,1.612c0.892,0,1.613-0.722,1.613-1.612
		c0-0.346-0.111-0.665-0.298-0.928L21.702,11.482z"/>
	<g display="inline">
		<rect x="15.484" y="8.309" fill="#2D2D2D" width="1" height="1.775"/>
	</g>
	<g display="inline">
		<rect x="7.252" y="17.815" fill="#2D2D2D" width="1.775" height="1"/>
	</g>
	<g display="inline">
		
			<rect x="9.29" y="11.767" transform="matrix(0.6929 0.721 -0.721 0.6929 11.9693 -3.5715)" fill="#2D2D2D" width="1.776" height="1"/>
	</g>
	<g display="inline">
		
			<rect x="7.708" y="14.648" transform="matrix(0.9193 0.3936 -0.3936 0.9193 6.6565 -2.1604)" fill="#2D2D2D" width="1.775" height="1"/>
	</g>
	<g display="inline">
		
			<rect x="11.799" y="9.583" transform="matrix(0.374 0.9274 -0.9274 0.374 17.2927 -5.4538)" fill="#2D2D2D" width="1.775" height="1"/>
	</g>
</g>
<g id="Layer_18" display="none">
	<g display="inline" opacity="0.5">
		<rect x="6.734" y="14.542" fill="#666765" width="1" height="6.781"/>
	</g>
	<g display="inline" opacity="0.5">
		<rect x="13.797" y="10.681" fill="#666765" width="1" height="10.641"/>
	</g>
	<g display="inline" opacity="0.5">
		<rect x="20.812" y="6.458" fill="#666765" width="1" height="14.866"/>
	</g>
	<g display="inline" opacity="0.5">
		<rect x="5.328" y="23.5" fill="#666765" width="21.314" height="1"/>
	</g>
</g>
<g id="Layer_19" display="none">
	<circle display="inline" opacity="0.5" fill="#666765" cx="7.25" cy="18.523" r="0.5"/>
	<circle display="inline" opacity="0.5" fill="#666765" cx="8.596" cy="18.023" r="0.5"/>
	<circle display="inline" opacity="0.5" fill="#666765" cx="17.908" cy="23.25" r="0.5"/>
	<circle display="inline" opacity="0.5" fill="#666765" cx="18.625" cy="24.918" r="0.5"/>
	<circle display="inline" opacity="0.5" fill="#666765" cx="23.127" cy="18.023" r="0.5"/>
	<circle display="inline" opacity="0.5" fill="#666765" cx="24.627" cy="18.523" r="0.5"/>
	<circle display="inline" opacity="0.5" fill="#666765" cx="14.281" cy="8.809" r="0.5"/>
	<circle display="inline" opacity="0.5" fill="#666765" cx="17.625" cy="8.809" r="0.5"/>
	<circle display="inline" opacity="0.5" fill="#666765" cx="15.984" cy="8.527" r="0.5"/>
	<circle display="inline" opacity="0.5" fill="#666765" cx="16.984" cy="25.156" r="0.5"/>
	<circle display="inline" opacity="0.5" fill="#666765" cx="13.406" cy="24.875" r="0.5"/>
	<circle display="inline" opacity="0.5" fill="#666765" cx="15.249" cy="25.219" r="0.5"/>
	<circle display="inline" opacity="0.5" fill="#666765" cx="23.523" cy="21.254" r="0.5"/>
	<circle display="inline" opacity="0.5" fill="#666765" cx="22.481" cy="22.543" r="0.501"/>
	<circle display="inline" opacity="0.5" fill="#666765" cx="21.253" cy="23.772" r="0.501"/>
	<circle display="inline" opacity="0.5" fill="#666765" cx="10.938" cy="23.5" r="0.499"/>
	<path display="inline" opacity="0.5" fill="#666765" d="M12.049,21.944c0.174,0.213,0.143,0.526-0.07,0.704
		c-0.215,0.176-0.529,0.143-0.703-0.071c-0.174-0.212-0.146-0.526,0.07-0.702C11.557,21.697,11.873,21.73,12.049,21.944z"/>
	<circle display="inline" opacity="0.5" fill="#666765" cx="22.346" cy="11.767" r="0.5"/>
	<circle display="inline" opacity="0.5" fill="#666765" cx="23.617" cy="11.096" r="0.5"/>
</g>
<g id="Layer_20" display="none">
	<path display="inline" opacity="0.5" fill="#9B9A9A" d="M9.709,15.477v8.11c0,0.315,0.259,0.575,0.574,0.575h11.09
		c0.316,0,0.574-0.26,0.574-0.575V11.008L9.709,15.477z"/>
	<rect x="10.125" y="24.562" display="inline" opacity="0.5" fill="#9B9A9A" width="11.939" height="3.812"/>
</g>
<g id="Layer_21" display="none">
	<path display="inline" fill="#9B9A9A" d="M26.637,16.527h-8.861l7.659,4.401C26.139,19.603,26.559,18.11,26.637,16.527z"/>
</g>
<g id="Layer_22" display="none">
	<path display="inline" fill="#9B9A9A" d="M18.44,17.021l3.04-1.513v-2.152l-3.04,1.514V17.021z M18.447,17.91l3.042-1.513v-0.623
		l-3.042,1.513V17.91z M23.03,14.375l2.28,1.141l-2.28,1.139V14.375z M23.028,17.387l3.022-1.513l0.775,0.389l-3.798,1.894V17.387z
		 M16.892,13.972l6.137-3.052l-1.5-0.751l-6.165,3.106L16.892,13.972z M13.835,12.449l4.597-2.293l-1.501-0.751l-4.625,2.302
		L13.835,12.449z M10.005,10.156L16.11,7.14l-2.275-1.135L7.7,9.031L10.005,10.156z M6.944,10.557l0.782-0.382L7.721,9.03
		l3.737-0.625L9.957,7.654l-4.528,2.14L6.944,10.557z"/>
	<polygon display="inline" fill="#9B9A9A" points="24.534,19.717 29.884,17.045 29.884,19.275 24.534,22.002 	"/>
</g>
</svg>
