<?xml version="1.0" encoding="utf-8"?>
<!-- Generator: Adobe Illustrator 16.0.1, SVG Export Plug-In . SVG Version: 6.00 Build 0)  -->
<!DOCTYPE svg PUBLIC "-//W3C//DTD SVG 1.1//EN" "http://www.w3.org/Graphics/SVG/1.1/DTD/svg11.dtd">
<svg version="1.1" xmlns="http://www.w3.org/2000/svg" xmlns:xlink="http://www.w3.org/1999/xlink" x="0px" y="0px" width="32px"
	 height="32px" viewBox="0 0 32 32" enable-background="new 0 0 32 32" xml:space="preserve">
<g id="Layer_1" display="none">
	<rect x="-2.051" y="8.733" display="inline" fill="#9B9A9A" width="3.965" height="3.965"/>
	<rect x="-2.051" y="13.59" display="inline" fill="#666765" width="3.965" height="3.964"/>
	<rect x="-2.051" y="18.447" display="inline" fill="#2D2D2D" width="3.965" height="3.965"/>
	<rect x="-2.051" y="23.305" display="inline" fill="#DD82B3" width="3.965" height="3.965"/>
	<g display="inline">
		<path fill="#9B9A9A" d="M5.77,9.733v1.965H3.803V9.733H5.77 M6.77,8.733H2.803v3.965H6.77V8.733L6.77,8.733z"/>
	</g>
	<g display="inline">
		<path fill="#666765" d="M5.77,14.59v1.965H3.805V14.59H5.77 M6.77,13.59H2.805v3.964H6.77V13.59L6.77,13.59z"/>
	</g>
	<g display="inline">
		<path fill="#2D2D2D" d="M5.77,19.447v1.965H3.805v-1.965H5.77 M6.77,18.447H2.805v3.965H6.77V18.447L6.77,18.447z"/>
	</g>
	<g display="inline">
		<path fill="#DD82B3" d="M5.77,24.305v1.965H3.805v-1.965H5.77 M6.77,23.305H2.805v3.965H6.77V23.305L6.77,23.305z"/>
	</g>
	<polyline display="inline" fill="none" stroke="#000000" stroke-width="0.05" stroke-miterlimit="10" points="4.146,4.806 
		4.146,1.996 4.146,0.932 -0.284,0.932 -0.284,7.198 4.146,7.198 4.146,4.806 	"/>
	<polyline display="inline" fill="none" stroke="#000000" stroke-width="0.05" stroke-miterlimit="10" points="1.19,6.281 
		5.065,6.281 5.065,1.849 -1.201,1.849 -1.201,6.281 1.19,6.281 	"/>
	
		<line display="inline" fill="none" stroke="#000000" stroke-width="0.05" stroke-miterlimit="10" x1="1.93" y1="7.198" x2="1.93" y2="0.932"/>
</g>
<g id="BG" display="none">
</g>
<g id="Layer_2" display="none">
	<rect x="13.562" y="13.573" display="inline" fill="#666765" width="4.854" height="4.854"/>
	<rect x="19.405" y="13.573" display="inline" fill="#666765" width="4.855" height="4.854"/>
	<rect x="7.716" y="13.573" display="inline" fill="#666765" width="4.854" height="4.854"/>
</g>
<g id="Layer_3" display="none">
	<path display="inline" fill="#666765" d="M15.999,7.271c-2.641,0-4.778,2.133-4.778,4.765s2.138,4.766,4.778,4.766
		c2.639,0,4.779-2.134,4.779-4.766S18.638,7.271,15.999,7.271z M15.999,15.681c-2.014,0-3.646-1.631-3.646-3.645
		s1.632-3.647,3.646-3.647c2.013,0,3.644,1.634,3.644,3.647S18.012,15.681,15.999,15.681z"/>
</g>
<g id="Layer_5" display="none">
	<g display="inline">
		<g>
			<g>
				<path fill="#9B9A9A" d="M21.254,5.175c5.97,2.905,8.461,10.125,5.555,16.093c-2.906,5.967-10.125,8.459-16.094,5.553
					c-5.967-2.906-8.457-10.125-5.553-16.093C8.068,4.76,15.287,2.27,21.254,5.175 M21.434,4.802
					C15.252,1.793,7.801,4.363,4.791,10.546c-3.01,6.184-0.439,13.635,5.744,16.646c6.182,3.01,13.635,0.438,16.646-5.744
					C30.19,15.265,27.616,7.812,21.434,4.802L21.434,4.802z"/>
			</g>
		</g>
		<g>
			<g>
				
					<rect x="9.993" y="14.593" transform="matrix(0.8991 0.4377 -0.4377 0.8991 8.1086 -4.7545)" fill="#9B9A9A" width="8.751" height="1.24"/>
			</g>
		</g>
	</g>
</g>
<g id="Layer_7" display="none">
	<path display="inline" fill="#666765" d="M18.073,18.016l0.015-0.029l3.779-7.9l-7.91,3.769l-0.033,0.015l-0.018,0.035l-3.779,7.9
		l7.91-3.77L18.073,18.016z M17.252,17.553l-5.771,2.891l2.842-5.743L17.252,17.553z"/>
	<g display="inline">
		<path fill="#666765" d="M14.748,6.558h0.721l0.812,1.549l0.311,0.688h0.02c-0.033-0.33-0.091-0.77-0.091-1.138V6.558h0.668v3.117
			h-0.72L15.655,8.12L15.35,7.442h-0.02c0.033,0.344,0.091,0.76,0.091,1.128v1.104h-0.673V6.558z"/>
		<path fill="#666765" d="M15.211,24.61c0.219,0.19,0.506,0.325,0.764,0.325c0.291,0,0.436-0.115,0.436-0.301
			c0-0.197-0.177-0.259-0.45-0.374l-0.401-0.172c-0.324-0.129-0.631-0.396-0.631-0.851c0-0.518,0.464-0.928,1.109-0.928
			c0.359,0,0.736,0.143,1.004,0.41l-0.354,0.445c-0.206-0.158-0.401-0.249-0.65-0.249c-0.239,0-0.396,0.104-0.396,0.282
			c0,0.191,0.205,0.258,0.478,0.368l0.397,0.163c0.377,0.152,0.616,0.406,0.616,0.846c0,0.516-0.431,0.967-1.172,0.967
			c-0.405,0-0.836-0.153-1.155-0.451L15.211,24.61z"/>
		<path fill="#666765" d="M23.369,14.401h1.955v0.593h-1.248v0.626h1.061v0.588h-1.061v0.717h1.297v0.594h-2.004V14.401z"/>
		<path fill="#666765" d="M6.369,14.401h0.723l0.215,1.458c0.043,0.325,0.086,0.654,0.129,0.985h0.02
			c0.057-0.331,0.119-0.66,0.182-0.985l0.334-1.458h0.598l0.34,1.458c0.062,0.316,0.125,0.65,0.187,0.985h0.019
			c0.039-0.334,0.082-0.665,0.125-0.985l0.215-1.458h0.674L9.572,17.52H8.688l-0.305-1.417c-0.049-0.24-0.092-0.493-0.125-0.722
			h-0.02c-0.037,0.229-0.076,0.481-0.123,0.722L7.818,17.52H6.949L6.369,14.401z"/>
	</g>
</g>
<g id="Layer_4" display="none">
	<g display="inline">
		<path opacity="0.6" fill="#2D2D2D" d="M26.129,11.556v7.482h-3.238v-7.482H26.129 M26.629,11.056h-0.5h-3.238h-0.5v0.5v7.482v0.5
			h0.5h3.238h0.5v-0.5v-7.482V11.056L26.629,11.056z"/>
	</g>
	<g display="inline" opacity="0.6">
		<rect x="23.333" y="12.138" fill="#2D2D2D" width="1" height="6.242"/>
	</g>
	<path display="inline" opacity="0.6" fill="#2D2D2D" d="M27.239,24.06h0.016l-0.041-0.042c-0.01-0.012-0.008-0.021-0.02-0.033
		c-0.011-0.011-0.03-0.02-0.042-0.029l-0.458-0.471h-1H6.314h-1l-0.5,0.5c-0.274,0.275-0.049,0.5,0.5,0.5h21.38
		C27.191,24.484,27.401,24.298,27.239,24.06z"/>
	<circle display="inline" opacity="0.6" fill="#2D2D2D" cx="17.407" cy="14.232" r="0.741"/>
	<polygon display="inline" opacity="0.6" fill="#2D2D2D" points="17.709,11.882 17.709,11.626 17.15,11.626 17.15,11.882 
		16.242,11.882 16.242,12.649 17.15,12.649 17.709,12.649 18.57,12.649 18.57,11.882 	"/>
	<path display="inline" opacity="0.6" fill="#2D2D2D" d="M9.99,14.065h2.643c-0.523-0.474-1.156-0.821-1.861-1H9.99V14.065z"/>
	<path display="inline" opacity="0.6" fill="#2D2D2D" d="M9.428,14.065v-1H8.623c-0.707,0.179-1.34,0.526-1.863,1H9.428z"/>
	<path display="inline" opacity="0.6" fill="#2D2D2D" d="M9.428,14.583H6.281c-0.244,0.307-0.463,0.634-0.617,1h3.764V14.583z"/>
	<path display="inline" opacity="0.6" fill="#2D2D2D" d="M9.428,16.086H5.506c-0.094,0.321-0.152,0.653-0.17,1h4.092V16.086z"/>
	<path display="inline" opacity="0.6" fill="#2D2D2D" d="M9.428,17.543H5.34c0.02,0.347,0.082,0.68,0.178,1h3.91V17.543z"/>
	<path display="inline" opacity="0.6" fill="#2D2D2D" d="M9.428,19.043H5.686c0.16,0.365,0.379,0.694,0.629,1h3.113V19.043z"/>
	<path display="inline" opacity="0.6" fill="#2D2D2D" d="M9.428,20.523H6.762c0.521,0.474,1.154,0.82,1.859,1h0.807V20.523z"/>
	<path display="inline" opacity="0.6" fill="#2D2D2D" d="M9.99,15.583h3.74c-0.156-0.366-0.375-0.693-0.619-1H9.99V15.583z"/>
	<path display="inline" opacity="0.6" fill="#2D2D2D" d="M9.99,16.086v1h4.066c-0.016-0.347-0.076-0.679-0.168-1H9.99z"/>
	<path display="inline" opacity="0.6" fill="#2D2D2D" d="M9.99,17.543v1h3.885c0.096-0.32,0.158-0.653,0.178-1H9.99z"/>
	<path display="inline" opacity="0.6" fill="#2D2D2D" d="M9.99,19.043v1h3.09c0.248-0.306,0.469-0.635,0.629-1H9.99z"/>
	<path display="inline" opacity="0.6" fill="#2D2D2D" d="M9.99,20.523v1h0.783c0.703-0.18,1.336-0.526,1.857-1H9.99z"/>
	<circle display="inline" opacity="0.6" fill="#2D2D2D" cx="17.407" cy="16.44" r="0.74"/>
	<circle display="inline" opacity="0.6" fill="#2D2D2D" cx="17.407" cy="18.774" r="0.741"/>
	<circle display="inline" opacity="0.6" fill="#2D2D2D" cx="17.282" cy="21.129" r="0.532"/>
	<circle display="inline" opacity="0.6" fill="#2D2D2D" cx="22.386" cy="21.129" r="0.533"/>
	<circle display="inline" opacity="0.6" fill="#2D2D2D" cx="19.954" cy="21.129" r="0.533"/>
	<circle display="inline" opacity="0.6" fill="#2D2D2D" cx="18.68" cy="21.129" r="0.533"/>
	<circle display="inline" opacity="0.6" fill="#2D2D2D" cx="21.159" cy="21.129" r="0.533"/>
	<path display="inline" opacity="0.6" fill="#2D2D2D" d="M24.574,19.842c-0.711,0-1.288,0.576-1.288,1.287s0.577,1.287,1.288,1.287
		s1.287-0.576,1.287-1.287S25.285,19.842,24.574,19.842z M24.574,21.869c-0.409,0-0.741-0.332-0.741-0.74
		c0-0.409,0.332-0.74,0.741-0.74c0.408,0,0.74,0.331,0.74,0.74C25.314,21.537,24.982,21.869,24.574,21.869z"/>
</g>
<g id="Layer_8" display="none">
	<path display="inline" fill="#9B9A9A" d="M16.484,5.344V4.041h2.287v-1h-5.543v1h2.256v1.303H7.949v2h1.038V8v1v18.55l0.249,0.145
		c2.055,1.19,4.389,1.819,6.749,1.819c2.361,0,4.695-0.629,6.751-1.819l0.25-0.145V9V8V7.344h0.965v-2H16.484z M15.29,5.836h1.419
		c0.275,0,0.414,0.208,0.309,0.462l-0.845,2.038c-0.105,0.254-0.275,0.253-0.378-0.002L14.977,6.3
		C14.874,6.045,15.016,5.836,15.29,5.836z M21.986,26.97c-3.684,2.021-8.318,2.021-11.999,0V9h5.497v7.468h-4.391
		c-0.277,0-0.5,0.224-0.5,0.5s0.223,0.5,0.5,0.5h9.791c0.276,0,0.5-0.224,0.5-0.5s-0.224-0.5-0.5-0.5h-4.4V9h5.502V26.97z"/>
</g>
<g id="Layer_9" display="none">
	<circle display="inline" fill="#2D2D2D" cx="14.078" cy="10.59" r="0.594"/>
	<rect x="10.944" y="12.288" display="inline" fill="#2D2D2D" width="1.854" height="0.934"/>
	<g display="inline">
		<path fill="#2D2D2D" d="M7.549,15.971c-0.691,0-1.254-0.563-1.254-1.255c0-0.692,0.562-1.256,1.254-1.256s1.256,0.563,1.256,1.256
			C8.805,15.408,8.24,15.971,7.549,15.971z M7.549,13.96c-0.416,0-0.754,0.339-0.754,0.756c0,0.416,0.338,0.755,0.754,0.755
			s0.756-0.339,0.756-0.755C8.305,14.299,7.965,13.96,7.549,13.96z"/>
	</g>
	
		<line display="inline" fill="none" stroke="#2D2D2D" stroke-width="0.5" stroke-miterlimit="10" x1="16.111" y1="12.093" x2="17.83" y2="12.093"/>
	<path display="inline" fill="#2D2D2D" d="M20.049,10.013v2.217h4.405v-2.217H20.049z M23.995,11.874h-3.38l3.38-1.469V11.874z"/>
	<g display="inline">
		<path fill="#2D2D2D" d="M16.971,15.55c-1.631,0-2.953,1.322-2.953,2.954c0,1.631,1.322,2.953,2.953,2.953s2.953-1.322,2.953-2.953
			C19.924,16.872,18.602,15.55,16.971,15.55z M18.059,20.699l-0.162,0.08c-0.286,0.116-0.598,0.184-0.926,0.184
			s-0.639-0.067-0.925-0.184l-0.167-0.083c-0.047-0.023-0.092-0.048-0.137-0.074l1.229-2.119l-1.229-2.119
			c0.049-0.028,0.098-0.056,0.148-0.081l0.152-0.075c0.287-0.117,0.6-0.185,0.928-0.185s0.639,0.066,0.925,0.184l0.17,0.084
			c0.046,0.023,0.09,0.048,0.134,0.073l-1.229,2.119l1.229,2.119C18.153,20.649,18.106,20.675,18.059,20.699z"/>
	</g>
	<path display="inline" fill="#2D2D2D" d="M17,14.889c1.993,0,3.615,1.622,3.615,3.615c0,1.993-1.622,3.615-3.615,3.615
		c-1.994,0-3.615-1.622-3.615-3.615C13.385,16.51,15.006,14.889,17,14.889 M17,13.889c-2.549,0-4.615,2.066-4.615,4.615
		c0,2.549,2.066,4.615,4.615,4.615s4.615-2.066,4.615-4.615C21.615,15.955,19.549,13.889,17,13.889L17,13.889z"/>
	<g display="inline">
		<path fill="#2D2D2D" d="M9.311,19.759c-0.691,0-1.254-0.562-1.254-1.255s0.562-1.256,1.254-1.256c0.692,0,1.256,0.563,1.256,1.256
			S10.003,19.759,9.311,19.759z M9.311,17.748c-0.416,0-0.754,0.339-0.754,0.756c0,0.416,0.338,0.755,0.754,0.755
			c0.417,0,0.756-0.339,0.756-0.755C10.066,18.087,9.728,17.748,9.311,17.748z"/>
	</g>
</g>
<g id="Layer_10" display="none">
	<g display="inline">
		<path fill="#DD82B3" d="M23.389,25.133H8.613V6.859h14.775V25.133z M9.613,24.133h12.775V7.859H9.613V24.133z"/>
	</g>
	<g display="inline">
		<path fill="#DD82B3" d="M19.818,14.739c-0.15-0.05-0.301-0.317-0.168-0.569c0.133-0.251,1.082,0.015,1.689-0.101
			c0.354-0.067,0.855-0.435,0.855-0.435l-0.1-0.268c0,0-2.096,0.368-2.246-1.333s1.627-3.021,1.627-3.021l-0.318-0.386
			c0,0-2.262,1.842-2.58,1.976s-0.938,0.318-1.156,0.168c-0.217-0.15-0.4-0.646-0.25-1.043s0.334-0.833,0.334-0.833
			S17.74,8.36,16.402,8.36c-1.34,0-6.08,0-6.08,0s-0.414-0.08-0.15,0.67c0.078,0.22,0.412,0.589,0.781,0.86
			c0.266,0.195,1.523,0.553,1.279,0.938c-0.149,0.234-0.938,0.328-1.641,0.328c-0.482,0-0.146,0.552,0.066,0.656
			c0.284,0.138,1.092,0.562,1.592,0.719c0.302,0.095,0.642,0.334,0.703,0.468c0.112,0.247-0.135,0.468-0.922,0.451
			s-1.121,0.001-1.121,0.001s-0.072,0.399,0.217,0.753c0.139,0.171,1.258,0.509,1.451,0.546c0.578,0.109,0.91,0.258,0.842,0.827
			c-0.066,0.569-1.506,5.441-3.129,7.367c0,0,0.5,0.503,1.689,0.637c1.189,0.132,3.031,0,3.031,0l0.344-10.582
			c0-0.92,0.746-1.667,1.666-1.667c0.113,0,0.225,0.012,0.332,0.034c0.09,0.018,0.178,0.048,0.262,0.08
			c0.016,0.006,0.031,0.008,0.047,0.014c0.453,0.189,0.797,0.574,0.943,1.046c0.008,0.023,0.016,0.046,0.021,0.069
			c0.037,0.136,0.061,0.276,0.061,0.424c0,0.92-0.746,1.667-1.666,1.667c-0.092,0-0.178-0.011-0.264-0.027
			c-0.072-0.011-0.141-0.029-0.207-0.05c-0.002,0-0.002,0-0.002,0l-0.014,0.017c-0.707-0.277-0.736,0.301-0.736,0.301l-0.164,8.733
			h4.521c-0.619-0.619-2.633-5.116-2.717-5.317c-0.084-0.2-0.15-0.502,0-0.586c0.152-0.083,0.252,0.116,0.252,0.116
			s1.539,1.525,2.863,0.755c1.322-0.771,1.203-2.109,0.922-2.679C21.189,15.359,19.969,14.79,19.818,14.739z M16.059,10.875
			c-0.699,0.047-1.402,0.903-1.353,2.123l0.013,1.189c-0.312,0.499-0.607,0.596-1.031,0.495c-0.143-0.034-0.71-0.254-0.891-0.308
			c-1.4-0.412-0.729-0.5-0.729-0.5s0.808,0.016,1.245-0.125c0.551-0.177,0.66-0.524,0.578-0.751
			c-0.045-0.124-0.295-0.344-0.516-0.431c-0.367-0.145-1.167-0.56-1.375-0.687c-0.156-0.096-0.287-0.4,0.067-0.4
			c0.517,0,1.011-0.028,1.026-0.622c0.012-0.419-0.219-0.672-0.609-0.766c-0.357-0.086-1.002-0.461-1.059-0.664
			c-0.194-0.69,0.642-0.586,0.642-0.586s2.178,0.004,3.161,0c1.24-0.005,1.131,0.781,1.131,0.781l0.002,1.219L16.059,10.875z"/>
	</g>
	<g display="inline">
		<circle fill="#DD82B3" cx="17.022" cy="12.998" r="0.964"/>
	</g>
</g>
<g id="Layer_11" display="none">
	<path display="inline" fill="#666765" d="M22.236,13.962l-0.005-0.004l4.557-4.557l-4.018-4.015l-4.557,4.555l-0.006-0.009
		l-9.421,9.421l-1.92,5.95l5.95-1.92L22.236,13.962z M22.771,6.635l2.768,2.767l-0.579,0.581l-2.771-2.768L22.771,6.635z
		 M21.565,7.841l2.771,2.766l-1.521,1.52L20.047,9.36L21.565,7.841z M19.424,9.984l2.765,2.766l-0.58,0.583l-2.768-2.767
		L19.424,9.984z M18.192,11.191l0.428,0.43l-7.9,7.901l-0.687-0.173L18.192,11.191z M8.231,23.941l0.453-1.407
		c0.247,0.025,0.481,0.135,0.664,0.313c0.172,0.172,0.276,0.395,0.308,0.633L8.231,23.941z M12.346,22.613l-1.853,0.596
		c-0.078-0.366-0.251-0.713-0.526-0.986c-0.282-0.279-0.638-0.45-1.012-0.523l0.51-1.583l1.045,0.26l0.586,1.844l1.277,0.368
		L12.346,22.613z M11.792,21.502l-0.437-1.369l7.886-7.889l1.737,1.734l-7.893,7.896L11.792,21.502z"/>
</g>
<g id="Layer_12" display="none">
	<path display="inline" fill="#2D2D2D" d="M11.6,25.187l3.691,1.505l5.024-10.393l2.691-2.691l-4.844-4.842l-2.692,2.689
		l-10.416,5.02l1.197,3.366l0.555,0.556l-1.043,1.041l0.006,0.007l0.15,1.241l0.283,0.281l-0.818,0.819l1.074,1.076l0.16-0.157
		l1.318-0.002l0.377,0.375l-0.128,0.389l-0.024,0.004l0.004,0.051l-0.32,0.969l0.723,0.24l0.186-0.565l1.471-0.172l0.102,0.009
		l0.004,0.004l0.028-0.027l0.021-0.004l-0.002-0.019l0.996-0.997L11.6,25.187L11.6,25.187z M20.76,12.439l-1.613,1.614l-2.6-2.598
		l1.614-1.614L20.76,12.439L20.76,12.439z M6.353,16.696l8.964-4.318l2.508,2.508l-6.316,6.957L6.353,16.696L6.353,16.696z
		 M25.449,9.073l-2.751-2.751l-3.66,2.743l3.668,3.668L25.449,9.073z M22.626,7.326l1.133,1.134l-2.126,2.125l-1.438-1.436
		L22.626,7.326L22.626,7.326z"/>
</g>
<g id="Layer_13" display="none">
	<path display="inline" fill="#666765" d="M26.617,7.501c-0.062-0.491-0.468-0.88-0.976-0.88H6.328c-0.508,0-0.914,0.389-0.976,0.88
		H5.328v0.12v17.037v0.353h0.071c0.145,0.376,0.504,0.647,0.929,0.647h19.313c0.425,0,0.784-0.271,0.929-0.647h0.071v-0.353V7.621
		v-0.12H26.617z"/>
</g>
<g id="Layer_14" display="none">
	<path display="inline" fill="#2D2D2D" d="M15.984,5.961c-5.533,0-10.035,4.502-10.035,10.037c0,5.534,4.502,10.036,10.035,10.036
		c5.534,0,10.037-4.502,10.037-10.036C26.021,10.463,21.519,5.961,15.984,5.961z M16.484,6.986c2.115,0.117,4.035,0.959,5.518,2.289
		l-5.518,5.518V6.986z M15.484,14.785L9.971,9.272c1.482-1.327,3.4-2.169,5.514-2.286V14.785z M14.783,15.498H6.975
		c0.116-2.116,0.96-4.036,2.289-5.519L14.783,15.498z M14.779,16.498l-5.517,5.517c-1.329-1.482-2.172-3.402-2.288-5.517H14.779z
		 M15.484,17.207v7.802c-2.113-0.116-4.032-0.959-5.515-2.287L15.484,17.207z M16.484,17.198l5.521,5.521
		c-1.483,1.33-3.404,2.174-5.521,2.29V17.198z M17.198,16.498h7.798c-0.116,2.112-0.958,4.03-2.285,5.513L17.198,16.498z
		 M17.193,15.498l5.516-5.516c1.328,1.482,2.171,3.401,2.287,5.516H17.193z"/>
</g>
<g id="Layer_15" display="none">
	<rect x="6.494" y="15.001" display="inline" fill="#9B9A9A" width="14.058" height="1.998"/>
	<rect x="21.304" y="15.001" display="inline" fill="#9B9A9A" width="4.155" height="1.998"/>
	<rect x="6.43" y="20.261" display="inline" fill="#9B9A9A" width="9.299" height="1.321"/>
</g>
<g id="Layer_16" display="none">
	<path display="inline" fill="#2D2D2D" d="M25.642,6.37H6.328c-0.827,0-1.5,0.673-1.5,1.5v16.342c0,0.827,0.673,1.5,1.5,1.5h19.313
		c0.827,0,1.5-0.673,1.5-1.5V7.87C27.142,7.043,26.469,6.37,25.642,6.37z M6.328,7.37h19.313c0.275,0,0.5,0.224,0.5,0.5v1.213H5.828
		V7.87C5.828,7.594,6.053,7.37,6.328,7.37z M25.642,24.712H6.328c-0.275,0-0.5-0.225-0.5-0.5V10.083h20.313v14.129
		C26.142,24.487,25.917,24.712,25.642,24.712z"/>
</g>
<g id="Layer_17" display="none">
	<g display="inline">
		<path fill="#DD82B3" d="M24.85,18.495l-1.967-0.361c0.317-1.726-0.057-3.473-1.054-4.918c-0.997-1.445-2.496-2.415-4.223-2.732
			l0.361-1.967c2.252,0.413,4.208,1.678,5.508,3.563C24.775,13.965,25.264,16.244,24.85,18.495z"/>
	</g>
</g>
<g id="Layer_18" display="none">
	<rect x="20.775" y="6.458" display="inline" fill="#DD82B3" width="4.407" height="14.866"/>
</g>
<g id="Layer_19">
	<g>
		<path fill="#DD82B3" d="M10.293,12.792c0.595-1.053,1.459-1.905,2.488-2.485l-1.506-3.229c-1.791,0.949-3.262,2.419-4.211,4.209
			L10.293,12.792z"/>
		<path fill="#DD82B3" d="M20.697,7.079l-1.501,3.219c1.04,0.588,1.901,1.451,2.489,2.491l3.219-1.501
			C23.956,9.498,22.486,8.028,20.697,7.079z"/>
		<path fill="#DD82B3" d="M11.275,24.918l1.502-3.22c-1.041-0.588-1.904-1.45-2.492-2.49L7.064,20.71
			C8.015,22.499,9.484,23.969,11.275,24.918z"/>
		<path fill="#DD82B3" d="M21.684,19.207c-0.588,1.039-1.45,1.9-2.488,2.488l1.501,3.222c1.79-0.949,3.259-2.419,4.208-4.208
			L21.684,19.207z"/>
	</g>
</g>
<g id="Layer_20" display="none">
	<rect x="10.125" y="7.125" display="inline" fill="#DD82B3" width="11.781" height="17.438"/>
</g>
<g id="Layer_21" display="none">
	<path display="inline" fill="#666765" d="M16.5,15.527h10.141c-0.243-5.469-4.65-9.851-10.152-10.098L16.5,15.527z"/>
</g>
<g id="Layer_22" display="none">
	<path display="inline" fill="#DD82B3" d="M13.835,23.529l-1.529-0.764V11.684l1.529,0.766V23.529z M10.014,22.766l-2.293-1.125
		V9.031l2.293,1.125V22.766z M6.957,20.111l-1.528-0.766V9.793l1.528,0.78V20.111z M16.892,25.059l-1.528-0.766V13.277l1.528,0.7
		V25.059z M23.03,21.25l1.504,0.752v-2.285l-1.504-0.744V21.25z"/>
</g>
</svg>
