<?xml version="1.0" standalone="no"?>
<!DOCTYPE svg PUBLIC "-//W3C//DTD SVG 1.1//EN" "http://www.w3.org/Graphics/SVG/1.1/DTD/svg11.dtd" >
<!--
2014-3-21: Created.
-->
<svg xmlns="http://www.w3.org/2000/svg">
<metadata>
Created by FontForge 20110222 at Fri Mar 21 09:12:56 2014
 By David Lightman,,,
Created by David Lightman,,, with FontForge 2.0 (http://fontforge.sf.net)
</metadata>
<defs>
<font id="fontcustom" horiz-adv-x="512" >
  <font-face 
    font-family="fontcustom"
    font-weight="500"
    font-stretch="normal"
    units-per-em="512"
    panose-1="2 0 6 3 0 0 0 0 0 0"
    ascent="448"
    descent="-64"
    x-height="183.568"
    bbox="56.7519 -7.77222 478.144 391.248"
    underline-thickness="25.6"
    underline-position="-51.2"
    unicode-range="U+0020-0074"
  />
    <missing-glyph />
    <glyph glyph-name="space" unicode=" " horiz-adv-x="200" 
 />
    <glyph glyph-name="a" unicode="a" 
d="M295.04 175.664v34.416l48.6396 24.2236v-34.4316zM295.152 161.44v9.96777l48.6719 24.208v-9.96777zM368.48 218l36.4795 -18.2559l-36.4795 -18.2246v36.4805zM368.448 169.808l48.3516 24.208l12.4004 -6.22363l-60.7686 -30.3037v12.3193h0.0166016z
M270.272 224.448l-24.4482 11.1514l98.6396 49.6963l24 -12.0156zM221.36 248.816l-24.4639 11.8711l74 36.832l24.0156 -12.0156zM160.08 285.504l-36.8799 18l98.1602 48.416l36.3994 -18.1602zM111.104 279.088l-24.2393 12.208l72.4473 34.2402l24.0166 -12.0166
l-59.792 -10l0.0800781 -18.3193zM392.544 132.528l85.5996 42.752v-35.6807l-85.5996 -43.6318v36.5605z" />
    <glyph glyph-name="c" unicode="c" 
d="M84.9277 100.032v122h341.345v-122h-341.345z" />
    <glyph glyph-name="b" unicode="b" 
d="M385.024 316.592c0 6.65625 3.32779 9.98438 9.9834 9.98438c6.65625 0 9.98438 -3.32812 9.98438 -9.98438c0 -6.65561 -3.32812 -9.9834 -9.98438 -9.9834c-6.65561 0 -9.9834 3.32779 -9.9834 9.9834zM356.544 316.592c0 6.65625 3.32812 9.98438 9.98438 9.98438
c6.65561 0 9.9834 -3.32812 9.9834 -9.98438c0 -6.65561 -3.32779 -9.9834 -9.9834 -9.9834c-6.65625 0 -9.98438 3.32779 -9.98438 9.9834zM328.064 316.592c0 6.65625 3.32779 9.98438 9.9834 9.98438c6.65625 0 9.98438 -3.32812 9.98438 -9.98438
c0 -6.65561 -3.32812 -9.9834 -9.98438 -9.9834c-6.65561 0 -9.9834 3.32779 -9.9834 9.9834zM110 68.9922v204h142v-204h-142z" />
    <glyph glyph-name="e" unicode="e" 
d="M255.776 192.048zM256.128 384.64c-106.192 0.0800781 -192.672 -86.2236 -192.752 -192.416c-0.0957031 -106.224 86.208 -192.655 192.416 -192.768s192.672 86.2402 192.768 192.448c0.0966797 106.16 -86.2236 192.64 -192.432 192.735zM256.16 391.248v0
c109.983 -0.0957031 199.12 -89.3604 198.992 -199.376c-0.0644531 -110.032 -89.3926 -199.12 -199.36 -199.04c-110.032 0.12793 -199.136 89.3916 -199.04 199.408c0.0957031 109.983 89.3438 199.104 199.408 199.008zM347.536 284.448
c7.77637 -7.71191 7.87207 -20.2725 0.175781 -28.0322c-6.92773 -6.97559 -17.7441 -7.71191 -25.5361 -2.24023l-59.6162 -60.2236c0.176758 -0.624023 0.368164 -1.24805 0.368164 -1.93652c0 -3.82324 -3.13574 -6.92773 -6.95996 -6.92773
c-0.639648 0 -1.23145 0.175781 -1.82422 0.352539l-24.9277 -25.1523l-4.7041 4.63965l24.8799 25.1367c-0.175781 0.624023 -0.383789 1.26367 -0.383789 1.93555c0 3.85645 3.15234 6.97559 6.97656 6.97559c0.671875 0 1.26367 -0.208008 1.8877 -0.383789
l59.5996 60.208c-5.55176 7.72852 -4.92773 18.5439 2 25.5039c7.72852 7.80859 20.2881 7.85645 28.0645 0.144531z" />
    <glyph glyph-name="d" unicode="d" 
d="M198.16 151.936c0 -25.7598 13.2314 -48.3672 33.2158 -61.5996h-136.032h-5.90332h-8c-4.38477 0 -8 3.59961 -8 8v106.208c0 4.40039 3.61523 8 8 8h8h5.56738h9.71191v0c0 -8.86426 7.15234 -16.0801 16.0645 -16.0801s16.0957 7.21582 16.0957 16.0801v0h93.0879
c-19.1836 -13.3281 -31.8076 -35.4717 -31.8076 -60.6084zM148.976 135.856c8.89648 0 16.0801 7.21582 16.0967 16.0791c0 8.91211 -7.18457 16.0967 -16.0967 16.0967c-8.89551 0 -16.0635 -7.18457 -16.0635 -16.0967c0 -8.86328 7.16797 -16.0791 16.0635 -16.0791z
M87.0078 261.088h12v-35.3115h-12h-2.60742h-4.17676c-3.72754 0 -6.7832 3.59961 -6.7832 8v19.3115c0 4.40039 3.07129 8 6.7832 8h4.17676h2.60742zM431.216 261.584c3.79199 0 6.87988 -3.59961 6.89648 -8v-19.3115c0 -4.40039 -2.7998 -8 -6.22461 -8h-3.53613
h-2.6875h-13.6641v35.3115h12.3203h4.01562h2.87988zM430.592 212.544c4.41602 0 8 -3.59961 8 -8v-106.208c0 -4.40039 -3.59961 -8 -8 -8h-8h-15.5996h-94.3682c19.9844 13.2324 33.2158 35.8398 33.2158 61.5996c0 25.1367 -12.6074 47.2803 -31.792 60.6084h92.6084
h15.9355h8zM250.752 254.512c1.52588e-05 13.8561 6.92807 20.7842 20.7842 20.7842s20.7842 -6.92807 20.7842 -20.7842c0 -13.8561 -6.92807 -20.7842 -20.7842 -20.7842s-20.7842 6.92805 -20.7842 20.7842z" />
    <glyph glyph-name="g" unicode="g" 
d="M430.384 250.032c5.93652 -18 9.2959 -37.1523 9.2959 -57.1045c0 -101.439 -82.5117 -183.952 -183.936 -183.952c-78.3682 0 -145.264 49.3604 -171.712 118.528l124.784 44.1445l-25.1201 -50.7363l91.3281 45.7441l-20.8965 21.0234z" />
    <glyph glyph-name="f" unicode="f" 
d="M177.472 184.512c-4.44727 0 -8.01562 -3.58398 -8.01562 -8s3.56836 -8 8 -8h156.656c4.41602 0 8 3.58398 8 8s-3.58398 8 -8 8h-70.4004v119.488h88.0322v-287.52c-58.9443 -32.3369 -133.088 -32.3369 -191.984 0v287.52h87.9678v-119.488h-70.2559zM244.624 355.44
h22.7197c4.38379 0 6.62402 -3.32812 4.94434 -7.39258l-13.5361 -32.6074c-1.67969 -4.06445 -4.40039 -4.04883 -6.03223 0.03125l-13.0879 32.5439c-1.66406 4.08008 0.608398 7.4248 4.99219 7.4248z" />
    <glyph glyph-name="i" unicode="i" 
d="M259.12 324c-85.1846 0 -154.496 -69.2803 -154.496 -154.432c0 -15.8564 2.44824 -31.5205 7.32812 -46.7207h294.288c4.86328 15.2002 7.31152 30.8799 7.31152 46.7207c0 85.1514 -69.2793 154.432 -154.432 154.432zM259.12 340v0
c94.1279 0 170.448 -76.3203 170.448 -170.432c0 -22.1924 -4.36816 -43.2803 -12.0488 -62.7207h-316.831c-7.71289 19.4404 -12.0645 40.5283 -12.0645 62.7207c0 94.1113 76.3037 170.432 170.496 170.432zM347.232 264.288l-70.4482 -94.4639
c2.99219 -4.20801 4.76758 -9.3125 4.76758 -14.8486c0 -14.2393 -11.5361 -25.792 -25.8076 -25.792c-14.2246 0 -25.792 11.5361 -25.792 25.792c0 14.208 11.5518 25.792 25.792 25.792c2.87988 0 5.61621 -0.575195 8.19141 -1.45605l70.4805 94.5449zM247.744 286.656
v28.3994h16v-28.3994h-16zM116.032 146.96v16h28.3994v-16h-28.3994zM147.222 256.435l11.5361 11.0859l19.6895 -20.4873l-11.5361 -11.0869zM121.335 203.861l6.29688 14.709l26.1084 -11.1787l-6.29785 -14.709zM190.254 296.854l14.8379 5.98438l10.6221 -26.3379
l-14.8389 -5.98438z" />
    <glyph glyph-name="h" unicode="h" 
d="M85.248 230.336v48.3359h340.224v-48.3359h-340.224z" />
    <glyph glyph-name="k" unicode="k" 
d="M216.992 246.592v77.6641h77.6641v-77.6641h-77.6641zM310.48 246.592v77.6641h77.6797v-77.6641h-77.6797zM123.456 246.592v77.6641h77.6641v-77.6641h-77.6641z" />
    <glyph glyph-name="j" unicode="j" 
d="M107.744 106.832v108.496h16v-108.496h-16zM220.752 106.848v170.256h16v-170.256h-16zM332.992 106.816v237.855h16v-237.855h-16zM85.248 56v16h341.024v-16h-341.024z" />
    <glyph glyph-name="m" unicode="m" 
d="M125.888 59.1523l9.77637 30.3994c5.36035 -0.527344 10.416 -2.92773 14.3682 -6.76758c3.72754 -3.69629 5.9834 -8.54395 6.65625 -13.6641z" />
    <glyph glyph-name="l" unicode="l" 
d="M108 151.632c0 5.33333 2.66666 8 8 8s8 -2.66667 8 -8s-2.66666 -8 -8 -8s-8 2.66667 -8 8zM129.536 159.632c0 5.33333 2.66667 8 8 8s8 -2.66667 8 -8s-2.66667 -8 -8 -8s-8 2.66667 -8 8zM278.528 76c0 5.33334 2.66666 8 8 8s8 -2.66666 8 -8s-2.66666 -8 -8 -8
s-8 2.66666 -8 8zM290 49.3125c0 5.33333 2.66666 8 8 8s8 -2.66667 8 -8s-2.66666 -8 -8 -8s-8 2.66667 -8 8zM362.032 159.632c0 5.33333 2.66666 8 8 8s8 -2.66667 8 -8s-2.66666 -8 -8 -8s-8 2.66667 -8 8zM386.032 151.632c0 5.33333 2.66666 8 8 8s8 -2.66667 8 -8
s-2.66666 -8 -8 -8s-8 2.66667 -8 8zM220.496 307.056c0 5.33334 2.66667 8 8 8s8 -2.66666 8 -8s-2.66667 -8 -8 -8s-8 2.66666 -8 8zM274 307.056c0 5.33334 2.66666 8 8 8s8 -2.66666 8 -8s-2.66666 -8 -8 -8s-8 2.66666 -8 8zM247.744 311.568c0 5.33334 2.66667 8 8 8
c5.33334 0 8 -2.66666 8 -8s-2.66666 -8 -8 -8c-5.33333 0 -8 2.66666 -8 8zM263.744 45.5039c0 5.33333 2.66666 8 8 8s8 -2.66667 8 -8s-2.66666 -8 -8 -8s-8 2.66667 -8 8zM206.496 50c0 5.33333 2.66667 8 8 8s8 -2.66667 8 -8s-2.66667 -8 -8 -8s-8 2.66667 -8 8z
M235.984 44.4961c0 5.33333 2.66667 8 8 8s8 -2.66667 8 -8s-2.66667 -8 -8 -8s-8 2.66667 -8 8zM368.368 107.936c0 5.33334 2.66666 8 8 8s8 -2.66666 8 -8s-2.66666 -8 -8 -8s-8 2.66666 -8 8zM351.68 87.3125c0 5.34375 2.67221 8.01562 8.0166 8.01562
c5.34375 0 8.01562 -2.67188 8.01562 -8.01562c0 -5.3444 -2.67188 -8.0166 -8.01562 -8.0166c-5.34439 0 -8.0166 2.6722 -8.0166 8.0166zM332.032 67.6484c0 5.34375 2.67188 8.01562 8.01562 8.01562c5.34439 0 8.0166 -2.67188 8.0166 -8.01562
c0 -5.3444 -2.67221 -8.0166 -8.0166 -8.0166c-5.34375 0 -8.01562 2.6722 -8.01562 8.0166zM167.024 72c0 5.32291 2.66113 7.98438 7.9834 7.98438c5.32292 0 7.98438 -2.66146 7.98438 -7.98438s-2.66145 -7.98438 -7.98438 -7.98438
c-5.32227 0 -7.9834 2.66146 -7.9834 7.98438zM192.784 96.8965c3.34225 -4.0918 2.96889 -7.84669 -1.12012 -11.2646c-4.13351 -3.38203 -7.88286 -3.00345 -11.248 1.13574c-3.38329 4.12263 -3.00992 7.86677 1.12012 11.2324
c4.06972 3.43283 7.81908 3.06499 11.248 -1.10352zM349.536 259.728c0 5.33334 2.66666 8 8 8s8 -2.66666 8 -8c0 -5.33333 -2.66666 -8 -8 -8s-8 2.66667 -8 8zM369.872 270.464c0 5.33334 2.66666 8 8 8s8 -2.66666 8 -8s-2.66666 -8 -8 -8s-8 2.66666 -8 8z" />
    <glyph glyph-name="o" unicode="o" 
d="M426.192 183.568c-1.24805 -25.3281 -7.96875 -49.2168 -19.2324 -70.416l-122.544 70.416h141.776z" />
    <glyph glyph-name="n" unicode="n" 
d="M155.344 200.368l195.809 71.5039v-201.264c0 -5.04004 -4.12793 -9.2002 -9.18457 -9.2002h-177.439c-5.04004 0 -9.18457 4.16016 -9.18457 9.2002v129.76zM162 -5.98438v60.9922h191.024v-60.9922h-191.024z" />
    <glyph glyph-name="q" unicode="q" 
d="M141.456 231.68c0 11.2533 5.62663 16.8799 16.8799 16.8799s16.8799 -5.62663 16.8799 -16.8799s-5.62663 -16.8799 -16.8799 -16.8799s-16.8799 5.62663 -16.8799 16.8799zM202.784 289.68c0 11.2533 5.62663 16.8799 16.8799 16.8799
s16.8799 -5.62662 16.8799 -16.8799s-5.62663 -16.8799 -16.8799 -16.8799s-16.8799 5.62662 -16.8799 16.8799zM141.456 151.68c0 11.2533 5.62663 16.8799 16.8799 16.8799s16.8799 -5.62663 16.8799 -16.8799s-5.62663 -16.8799 -16.8799 -16.8799
s-16.8799 5.62663 -16.8799 16.8799z" />
    <glyph glyph-name="p" unicode="p" 
d="M314.288 255.648h17.9678c0 -42.2246 -34.1914 -76.4648 -76.2715 -76.4648c-42.1279 0 -76.2881 34.2246 -76.2881 76.4648h17.9521v0c0 -32.2402 26.1113 -58.3525 58.3359 -58.3525c32.208 0 58.3037 26.0957 58.3037 58.3525v0z" />
    <glyph glyph-name="s" unicode="s" 
d="M288.88 142.464zM107.84 115.712l7.21582 -7.21582l-10.1914 -10.2236l-7.18457 7.24707zM118.064 105.536l7.19922 -7.21582l-10.208 -10.2246l-7.21582 7.2168zM128.224 95.3125l7.2168 -7.23242l-10.1924 -10.1758l-7.21582 7.18359zM138.464 85.1201
l7.18457 -7.21582l-10.2246 -10.1924l-7.21582 7.21582zM148.656 74.9443l7.18359 -7.2168l-10.1914 -10.208l-7.18457 7.18457zM158.848 64.7363l7.2168 -7.16797l-10.208 -10.2881l-7.2002 7.24805zM169.04 54.5283l7.18359 -7.21582l-10.1758 -10.1924l-7.21582 7.21582z
M281.936 149.408l-43.0234 43.0234l14.3994 14.4326l43.0566 -43.0244l-14.4326 -14.4316zM272.006 139.468l-14.4297 -14.4424l-43.0557 43.0195l14.4297 14.4414z" />
    <glyph glyph-name="r" unicode="r" 
d="M366.256 208l51.8086 18.9277v-83.5361h-51.8086v64.6084zM431.328 247.76l15.0234 5.47266v-16v-148.992c0 -8.7998 -7.19922 -16 -16 -16h-348.688c-8.78418 0 -16 7.2002 -16 16v10v16l201.6 73.5996c-0.255859 -0.943359 -0.591797 -1.87207 -0.591797 -2.89551
c0 -6.52832 5.3125 -11.8408 11.8564 -11.8408c6.52734 0 11.8398 5.3125 11.8398 11.8408c0 3.9834 -2.09668 7.32812 -5.10449 9.47168l72.9922 26.6562v-77.6963v-8h8h51.8086h8v8v102.464l5.26367 1.91992v0zM276.512 101.44c4.68848 0 8.5127 3.80762 8.5127 8.49512
c0 4.7041 -3.82422 8.5127 -8.5127 8.5127c-4.7041 0 -8.51172 -3.80859 -8.51172 -8.5127c0 -4.6875 3.80762 -8.49512 8.51172 -8.49512zM278.512 135.76c6.52832 0 11.8398 5.3125 11.8398 11.8398c0 6.54395 -5.31152 11.8408 -11.8398 11.8408
c-6.54395 0 -11.8555 -5.29688 -11.8555 -11.8408c0 -6.52734 5.31152 -11.8398 11.8555 -11.8398zM298.896 101.44c4.6875 0 8.51172 3.80762 8.51172 8.49512c0 4.7041 -3.82422 8.5127 -8.51172 8.5127c-4.7041 0 -8.52832 -3.80859 -8.52832 -8.5127
c0 -4.6875 3.82422 -8.49512 8.52832 -8.49512zM319.264 101.44c4.68848 0 8.5127 3.80762 8.5127 8.49512c0 4.7041 -3.82422 8.5127 -8.5127 8.5127c-4.7041 0 -8.52734 -3.80859 -8.52734 -8.5127c0 -4.6875 3.82324 -8.49512 8.52734 -8.49512zM338.544 101.44
c4.68848 0 8.51172 3.80762 8.51172 8.49512c0 4.7041 -3.82324 8.5127 -8.51172 8.5127c-4.7041 0 -8.52832 -3.80859 -8.52832 -8.5127c0 -4.6875 3.82422 -8.49512 8.52832 -8.49512zM358.192 101.44c4.6875 0 8.51172 3.80762 8.51172 8.49512
c0 4.7041 -3.82422 8.5127 -8.51172 8.5127c-4.7041 0 -8.52832 -3.80859 -8.52832 -8.5127c0 -4.6875 3.82422 -8.49512 8.52832 -8.49512zM393.184 89.3438c11.376 0 20.5928 9.21582 20.5928 20.5918c0 11.377 -9.2168 20.5928 -20.5928 20.5928
s-20.6074 -9.21582 -20.6074 -20.5928c0 -11.376 9.23145 -20.5918 20.6074 -20.5918z" />
    <glyph glyph-name="t" unicode="t" 
d="M397.968 224.576c-4.39941 0 -7.90332 -3.66406 -7.90332 -8.12793s3.59961 -8.12793 8 -8.12793v-8.09668c-4.40039 0 -8 -3.66406 -8 -8.12793s3.59961 -8.12793 8 -8.12793v-8.12793c-4.40039 0 -8 -3.66406 -8 -8.12793s3.59961 -8.12793 8 -8.12793v-8.12793
c-4.40039 0 -8 -3.66406 -8 -8.12793s3.59961 -8.12793 8 -8.12793v-8.12793c-4.40039 0 -8 -3.66406 -8 -8.12793s3.59961 -8.12793 8 -8.12793v-8.12793c-4.40039 0 -8 -3.66406 -8 -8.12891c0 -4.46387 3.59961 -8.12793 8 -8.12793v-8.12793
c-4.40039 0 -8 -3.66406 -8 -8.12793s3.59961 -8.12793 8 -8.12793v-8.12793c-4.40039 0 -8 -3.66406 -8 -8.12793s3.59961 -8.12793 8 -8.12793v-7.67969c-4.38477 0 -8 -3.66406 -8 -8.12793h-4.44824c0 4.39941 -3.66406 8 -8.12793 8s-8.12793 -3.60059 -8.12793 -8
h-8.12793c0 4.39941 -3.66406 8 -8.12891 8c-4.46387 0 -8.12793 -3.60059 -8.12793 -8h-8.12793c0 4.39941 -3.66406 8 -8.12793 8s-8.12793 -3.60059 -8.12793 -8h-8.12793c0 4.39941 -3.66406 8 -8.12793 8s-8.12793 -3.60059 -8.12793 -8h-8.12793
c0 4.39941 -3.66406 8 -8.12793 8s-8.12793 -3.60059 -8.12793 -8h-8.14453c0 4.39941 -3.66406 8 -8.12793 8s-8.12793 -3.60059 -8.12793 -8h-8.12793c0 4.39941 -3.66406 8 -8.12793 8s-8.12793 -3.60059 -8.12793 -8h-8.12793c0 4.39941 -3.66406 8 -8.12793 8
s-8.12793 -3.60059 -8.12793 -8h-8.12793c0 4.39941 -3.66406 8 -8.12793 8c-4.46484 0 -8.12793 -3.60059 -8.12793 -8h-8.12891c0 4.39941 -3.66309 8 -8.12793 8c-4.46387 0 -8.12793 -3.60059 -8.12793 -8h-8.12793c0 4.39941 -3.66406 8 -8.12793 8
s-8.12793 -3.60059 -8.12793 -8h-2.84766c0 4.46387 -3.61621 8.12793 -8 8.12793c-0.400391 0 -0.720703 -0.175781 -1.08789 -0.224609v7.9043c4.38379 0 8 3.66406 8 8.12793s-3.61621 8.12793 -8 8.12793v8.12793c4.38379 0 8 3.66406 8 8.12793
s-3.61621 8.12793 -8 8.12793v8.12793c4.38379 0 8 3.66406 8 8.12793c0 4.46484 -3.61621 8.12891 -8 8.12891v8.12793c4.38379 0 8 3.66406 8 8.12793s-3.61621 8.12793 -8 8.12793v0.0634766l284.399 103.84v-6.39941z" />
  </font>
</defs>
</svg>
