<?xml version="1.0" encoding="utf-8"?>
<!-- Generator: Adobe Illustrator 16.0.1, SVG Export Plug-In . SVG Version: 6.00 Build 0)  -->
<!DOCTYPE svg PUBLIC "-//W3C//DTD SVG 1.1//EN" "http://www.w3.org/Graphics/SVG/1.1/DTD/svg11.dtd">
<svg version="1.1" xmlns="http://www.w3.org/2000/svg" xmlns:xlink="http://www.w3.org/1999/xlink" x="0px" y="0px" width="32px"
	 height="32px" viewBox="0 0 32 32" enable-background="new 0 0 32 32" xml:space="preserve">
<g id="Layer_1" display="none">
</g>
<g id="BG" display="none">
</g>
<g id="Layer_2" display="none">
	<rect x="19.405" y="7.734" display="inline" opacity="0.3" fill="#DD82B3" width="4.855" height="4.854"/>
	<rect x="13.562" y="19.418" display="inline" opacity="0.3" fill="#DD82B3" width="4.854" height="4.855"/>
	<rect x="19.405" y="19.418" display="inline" opacity="0.3" fill="#DD82B3" width="4.855" height="4.855"/>
	<rect x="7.716" y="19.418" display="inline" opacity="0.3" fill="#DD82B3" width="4.854" height="4.855"/>
	<rect x="13.562" y="13.573" display="inline" opacity="0.3" fill="#DD82B3" width="4.854" height="4.854"/>
	<rect x="19.405" y="13.573" display="inline" opacity="0.3" fill="#DD82B3" width="4.855" height="4.854"/>
</g>
<g id="Layer_3" display="none">
	<path display="inline" opacity="0.3" fill="#DD82B3" d="M25.554,12.037c0-5.283-4.282-9.568-9.567-9.568c-0.004,0-0.004,0-0.004,0
		v4.803l0,0c2.642,0,4.779,2.133,4.779,4.765s-2.138,4.766-4.779,4.766l0,0v12.724l7.911-12.107c0.021-0.033,0.044-0.068,0.067-0.1
		l0.177-0.273l-0.016,0.004C25.024,15.591,25.554,13.876,25.554,12.037z"/>
	<path display="inline" opacity="0.3" fill="#DD82B3" d="M15.981,15.68L15.981,15.68c-2.016,0-3.646-1.631-3.646-3.645
		c0-2.013,1.631-3.646,3.646-3.646l0,0v-1.12c-2.64,0.002-4.779,2.135-4.779,4.767s2.14,4.766,4.779,4.766V15.68z"/>
</g>
<g id="Layer_5" display="none">
	<path display="inline" d="M15.984,2.96c-7.189,0-13.037,5.848-13.037,13.037c0,7.19,5.848,13.039,13.037,13.039
		s13.039-5.849,13.039-13.039C29.023,8.808,23.174,2.96,15.984,2.96z M27.988,16.422c-0.003,0.116-0.008,0.232-0.017,0.348
		c-0.007,0.097-0.015,0.191-0.024,0.289l-1.375-0.146l-0.041,0.411l1.375,0.146c-0.002,0.016-0.002,0.031-0.004,0.05
		c-0.02,0.147-0.043,0.296-0.066,0.444c-0.02,0.113-0.041,0.227-0.062,0.338l-1.353-0.289l-0.086,0.404l1.352,0.288
		c-0.034,0.146-0.068,0.289-0.107,0.435c-0.022,0.08-0.046,0.16-0.07,0.24c-0.015,0.047-0.027,0.094-0.043,0.14l-1.312-0.426
		l-0.129,0.391l1.312,0.428c-0.041,0.122-0.082,0.249-0.133,0.371c0,0.002,0,0.003,0,0.003c-0.01,0.023-0.019,0.049-0.029,0.072
		c-0.043,0.113-0.09,0.229-0.139,0.342l-1.264-0.561l-0.168,0.375l1.26,0.562c-0.051,0.103-0.096,0.208-0.147,0.312
		c-0.04,0.081-0.081,0.161-0.124,0.241l-2.771-1.601l-0.415,0.717l2.774,1.601c-0.011,0.017-0.021,0.032-0.031,0.05
		c-0.008,0.009-0.013,0.02-0.02,0.027c-0.041,0.068-0.084,0.133-0.125,0.197c-0.063,0.094-0.129,0.182-0.189,0.273l-1.118-0.811
		l-0.241,0.334l1.119,0.812c-0.043,0.055-0.084,0.107-0.127,0.162c-0.05,0.063-0.102,0.129-0.154,0.195
		c-0.082,0.101-0.167,0.197-0.253,0.298l-1.026-0.927l-0.277,0.308l1.029,0.927c-0.002,0-0.002,0-0.002,0
		c-0.09,0.096-0.182,0.191-0.271,0.285c-0.105,0.104-0.21,0.204-0.316,0.302c-0.004,0.004-0.007,0.006-0.008,0.009l-0.926-1.027
		l-0.309,0.275l0.926,1.027c-0.088,0.073-0.17,0.148-0.261,0.221c-0.079,0.066-0.161,0.129-0.243,0.193
		c-0.051,0.039-0.1,0.078-0.15,0.117l-0.816-1.121l-0.334,0.244l0.812,1.116c-0.079,0.056-0.157,0.112-0.237,0.165
		c-0.075,0.051-0.149,0.1-0.224,0.147c-0.002,0-0.004,0.002-0.006,0.002c-0.016,0.011-0.031,0.02-0.046,0.03l-1.601-2.773
		l-0.717,0.414l1.602,2.771c-0.086,0.045-0.172,0.09-0.257,0.136c-0.009,0.002-0.015,0.008-0.024,0.011
		c-0.002,0.002-0.004,0.002-0.006,0.004c-0.1,0.051-0.201,0.094-0.303,0.142l-0.562-1.264l-0.378,0.169l0.564,1.266
		c-0.088,0.037-0.176,0.072-0.263,0.107c-0.054,0.021-0.106,0.043-0.162,0.064c-0.12,0.046-0.243,0.088-0.366,0.13l-0.426-1.319
		l-0.393,0.129l0.428,1.316c-0.033,0.011-0.064,0.021-0.099,0.03c-0.015,0.005-0.03,0.011-0.044,0.015
		c-0.082,0.022-0.164,0.047-0.246,0.07c-0.09,0.023-0.181,0.045-0.271,0.066c-0.052,0.014-0.104,0.023-0.157,0.038l-0.289-1.355
		l-0.402,0.085l0.285,1.355c-0.037,0.008-0.078,0.014-0.117,0.021c-0.081,0.015-0.159,0.031-0.241,0.045
		c-0.019,0.003-0.037,0.005-0.056,0.008c-0.138,0.022-0.277,0.04-0.418,0.059l-0.144-1.379l-0.413,0.041l0.145,1.379
		c-0.103,0.01-0.206,0.019-0.31,0.023c-0.103,0.008-0.204,0.01-0.306,0.016v-3.199h-0.025v-0.029h-0.826V28
		c-0.008,0-0.016,0-0.021,0c-0.11-0.006-0.22-0.01-0.329-0.018c-0.095-0.007-0.19-0.016-0.286-0.023l0.145-1.379l-0.41-0.043
		l-0.146,1.381c-0.039-0.006-0.077-0.012-0.116-0.015c-0.127-0.019-0.252-0.034-0.378-0.057c-0.114-0.019-0.228-0.041-0.339-0.062
		l0.287-1.356l-0.404-0.086l-0.287,1.357c-0.145-0.035-0.289-0.069-0.432-0.108c-0.082-0.021-0.162-0.045-0.242-0.069
		c-0.047-0.015-0.095-0.029-0.142-0.045l0.429-1.318l-0.393-0.126l-0.429,1.315c-0.123-0.043-0.247-0.084-0.369-0.131
		c-0.021-0.008-0.04-0.016-0.06-0.022c-0.121-0.048-0.24-0.097-0.359-0.146l0.563-1.269l-0.378-0.168l-0.562,1.262
		c-0.103-0.047-0.206-0.092-0.309-0.144c-0.081-0.04-0.161-0.083-0.242-0.126l1.601-2.771l-0.717-0.415l-1.601,2.774
		c-0.001,0-0.003-0.001-0.005-0.001c-0.025-0.017-0.049-0.032-0.072-0.048c-0.066-0.041-0.132-0.086-0.197-0.127
		c-0.094-0.062-0.184-0.129-0.275-0.191l0.813-1.121l-0.334-0.24L8.75,25.586c-0.002-0.001-0.002-0.002-0.002-0.003
		c-0.048-0.037-0.096-0.074-0.143-0.11c-0.07-0.057-0.141-0.109-0.21-0.167c-0.102-0.083-0.2-0.169-0.3-0.255l0.928-1.03
		l-0.307-0.276l-0.929,1.031c-0.096-0.09-0.19-0.18-0.283-0.271c-0.104-0.104-0.204-0.208-0.302-0.314
		c-0.005-0.006-0.008-0.009-0.012-0.012l1.031-0.93l-0.277-0.307l-1.029,0.928c-0.072-0.086-0.147-0.17-0.219-0.258
		c-0.065-0.079-0.131-0.162-0.193-0.242c-0.04-0.053-0.08-0.103-0.12-0.154l1.123-0.818l-0.242-0.334l-1.12,0.815
		c-0.053-0.08-0.11-0.156-0.162-0.236c-0.045-0.067-0.088-0.132-0.13-0.197c-0.017-0.026-0.032-0.052-0.048-0.077l2.771-1.601
		l-0.414-0.718L5.391,21.65c-0.045-0.083-0.088-0.166-0.131-0.25c-0.006-0.009-0.012-0.02-0.017-0.029
		c-0.001-0.004-0.001-0.006-0.002-0.008c-0.052-0.1-0.098-0.202-0.146-0.306l1.266-0.564l-0.168-0.376l-1.268,0.564
		c-0.037-0.092-0.075-0.183-0.111-0.273c-0.014-0.032-0.025-0.063-0.037-0.096c-0.007-0.016-0.014-0.032-0.02-0.05
		c-0.047-0.122-0.09-0.245-0.133-0.37l1.318-0.43l-0.127-0.392L4.498,19.5c-0.009-0.027-0.018-0.056-0.025-0.082
		c-0.018-0.059-0.035-0.119-0.052-0.18c-0.011-0.039-0.023-0.078-0.034-0.117c-0.039-0.146-0.075-0.293-0.109-0.438l1.359-0.29
		l-0.086-0.401l-1.355,0.287c-0.006-0.035-0.014-0.068-0.02-0.102c-0.015-0.08-0.031-0.16-0.044-0.24
		c-0.019-0.107-0.033-0.219-0.05-0.328c-0.008-0.055-0.015-0.108-0.021-0.164l1.383-0.145l-0.044-0.412l-1.378,0.145
		c-0.007-0.097-0.018-0.194-0.023-0.292c-0.006-0.107-0.014-0.214-0.017-0.32h3.2v-0.827H3.982c0.002-0.102,0.007-0.205,0.012-0.306
		c0.007-0.121,0.02-0.239,0.029-0.359l1.379,0.144l0.043-0.411l-1.38-0.145c0.016-0.124,0.032-0.249,0.051-0.373
		c0.003-0.016,0.005-0.032,0.007-0.048c0.023-0.139,0.05-0.276,0.076-0.413l1.357,0.289l0.085-0.405l-1.356-0.288
		c0.014-0.06,0.027-0.12,0.043-0.179c0.015-0.059,0.027-0.119,0.044-0.177c0.012-0.047,0.026-0.092,0.039-0.139
		c0.026-0.091,0.051-0.183,0.078-0.273c0.005-0.016,0.01-0.031,0.015-0.046l1.32,0.429l0.127-0.393l-1.318-0.429
		c0.034-0.099,0.068-0.198,0.105-0.297c0.004-0.01,0.009-0.021,0.014-0.032c0.03-0.083,0.063-0.165,0.096-0.246
		c0.029-0.072,0.059-0.143,0.088-0.213l1.268,0.564l0.168-0.377l-1.264-0.563c0.036-0.077,0.07-0.154,0.108-0.231
		c0.038-0.079,0.077-0.155,0.118-0.232c0.018-0.034,0.036-0.069,0.055-0.104l2.797,1.614L8.6,11.24L5.805,9.626
		c0.049-0.081,0.1-0.161,0.152-0.241c0.006-0.01,0.013-0.02,0.02-0.029c0.059-0.09,0.121-0.176,0.184-0.264l1.118,0.812l0.243-0.333
		L6.4,8.757C6.467,8.671,6.533,8.584,6.602,8.5c0.001-0.002,0.002-0.004,0.003-0.006C6.633,8.458,6.661,8.422,6.69,8.387
		C6.77,8.29,6.852,8.196,6.933,8.103l1.03,0.927l0.275-0.308L7.209,7.795C7.239,7.764,7.27,7.732,7.3,7.699
		c0.065-0.068,0.131-0.137,0.197-0.204c0.058-0.058,0.116-0.113,0.176-0.169C7.718,7.284,7.763,7.242,7.808,7.2l0.927,1.029
		l0.307-0.277L8.114,6.923c0.092-0.079,0.183-0.159,0.276-0.235c0.002-0.001,0.002-0.001,0.002-0.001
		c0.125-0.102,0.251-0.198,0.379-0.294l0.814,1.121L9.92,7.271L9.106,6.152c0.083-0.057,0.162-0.115,0.245-0.17
		C9.445,5.92,9.541,5.86,9.636,5.801l1.615,2.796l0.716-0.413l-1.615-2.797c0.001,0,0.001,0,0.001,0
		c0.081-0.042,0.163-0.084,0.245-0.125c0.02-0.01,0.039-0.02,0.059-0.03c0.09-0.043,0.18-0.083,0.27-0.126l0.562,1.262L11.865,6.2
		l-0.563-1.266c0.044-0.018,0.087-0.036,0.131-0.053c0.078-0.032,0.157-0.063,0.236-0.094c0.03-0.012,0.061-0.025,0.091-0.036
		c0.111-0.042,0.221-0.079,0.33-0.118l0.43,1.316l0.393-0.127l-0.428-1.316c0.111-0.035,0.225-0.067,0.338-0.098
		c0.028-0.008,0.057-0.017,0.086-0.025c0.116-0.031,0.232-0.059,0.35-0.087c0.014-0.003,0.027-0.006,0.041-0.009l0.289,1.355
		l0.404-0.086l-0.287-1.352c0.104-0.019,0.207-0.04,0.312-0.057c0.023-0.004,0.046-0.009,0.07-0.014
		c0.07-0.011,0.143-0.021,0.215-0.031c0.078-0.011,0.156-0.022,0.234-0.032l0.146,1.378l0.41-0.043l-0.145-1.373
		c0.035-0.002,0.07-0.006,0.105-0.009c0.079-0.005,0.156-0.014,0.235-0.019c0.059-0.003,0.117-0.005,0.177-0.009
		c0.031-0.001,0.062-0.002,0.094-0.003v3.2h0.024v0.03h0.827V3.993C16.5,3.996,16.59,4,16.678,4.003c0.002,0,0.004,0,0.006,0
		c0.012,0.001,0.023,0.002,0.037,0.003c0.11,0.007,0.221,0.019,0.332,0.028l-0.145,1.373l0.412,0.043l0.143-1.376
		c0.117,0.015,0.232,0.03,0.348,0.048c0.024,0.004,0.049,0.007,0.074,0.011c0.014,0.003,0.028,0.005,0.041,0.008
		c0.127,0.02,0.248,0.045,0.371,0.068l-0.288,1.351l0.405,0.087l0.287-1.353c0.049,0.012,0.1,0.023,0.149,0.036
		c0.067,0.017,0.138,0.033,0.206,0.051c0.152,0.042,0.306,0.086,0.459,0.133l-0.427,1.315l0.392,0.128l0.428-1.314
		c0.1,0.034,0.199,0.069,0.299,0.106c0.018,0.007,0.035,0.015,0.055,0.022c0.085,0.032,0.17,0.066,0.254,0.1
		c0.061,0.024,0.121,0.049,0.18,0.074l-0.562,1.264l0.378,0.168l0.56-1.262c0.08,0.038,0.159,0.074,0.238,0.112
		c0.017,0.009,0.032,0.018,0.048,0.026c0.074,0.036,0.147,0.073,0.22,0.112c0.021,0.011,0.043,0.021,0.063,0.033l-1.615,2.797
		l0.717,0.414l1.614-2.795l0.002,0.001c0.089,0.055,0.177,0.109,0.263,0.166c0.004,0.001,0.004,0.002,0.005,0.004
		c0.089,0.059,0.175,0.121,0.262,0.182l-0.81,1.116l0.333,0.243l0.812-1.117c0.105,0.08,0.211,0.16,0.312,0.242
		c0.02,0.017,0.041,0.032,0.061,0.049c0.098,0.079,0.189,0.159,0.282,0.241l-0.923,1.026l0.305,0.277l0.925-1.026
		c0.038,0.036,0.075,0.07,0.112,0.105c0.063,0.061,0.128,0.122,0.191,0.185c0.064,0.065,0.127,0.132,0.191,0.199
		c0.023,0.027,0.051,0.054,0.076,0.081c0.008,0.009,0.017,0.019,0.025,0.027L23.755,8.74l0.276,0.307l1.025-0.925
		c0.08,0.092,0.16,0.185,0.238,0.279c0.014,0.016,0.024,0.033,0.039,0.049c0.086,0.108,0.17,0.217,0.253,0.327l-1.116,0.814
		l0.242,0.334l1.115-0.812c0.061,0.086,0.119,0.17,0.182,0.259c0,0.002,0,0.004,0.002,0.006c0.031,0.046,0.059,0.093,0.089,0.139
		c0.026,0.042,0.054,0.085,0.081,0.128l-2.796,1.615l0.412,0.716l2.798-1.615c0.013,0.022,0.023,0.045,0.035,0.068
		c0.02,0.038,0.039,0.076,0.057,0.114c0.023,0.043,0.047,0.085,0.066,0.129c0.042,0.085,0.081,0.172,0.122,0.258l-1.261,0.562
		l0.167,0.378l1.265-0.564c0.02,0.048,0.039,0.096,0.059,0.144c0.033,0.08,0.063,0.16,0.094,0.242
		c0.012,0.025,0.023,0.052,0.031,0.078c0.041,0.109,0.079,0.217,0.116,0.327l-1.313,0.427l0.128,0.393l1.313-0.427
		c0.046,0.148,0.09,0.297,0.129,0.447c0.008,0.025,0.011,0.049,0.017,0.073c0.026,0.099,0.048,0.197,0.07,0.296l-1.351,0.288
		l0.086,0.404l1.351-0.287c0.001,0.003,0.001,0.006,0.003,0.011c0.021,0.12,0.045,0.24,0.066,0.361
		c0.023,0.153,0.044,0.306,0.062,0.46l-1.375,0.145l0.043,0.41l1.373-0.144c0.01,0.103,0.02,0.207,0.025,0.31
		c0.008,0.11,0.011,0.221,0.014,0.331H24.76v0.827H27.988z"/>
</g>
<g id="Layer_7" display="none">
	<path display="inline" d="M17.502,4.561V3.648h-3.035v0.913c-5.622,0.747-9.979,5.56-9.979,11.382
		c0,6.339,5.157,11.497,11.496,11.497S27.48,22.282,27.48,15.943C27.48,10.121,23.124,5.308,17.502,4.561z M15.984,26.557
		c-5.853,0-10.613-4.76-10.613-10.614c0-5.851,4.761-10.612,10.613-10.612c5.854,0,10.615,4.761,10.615,10.612
		C26.6,21.797,21.838,26.557,15.984,26.557z"/>
</g>
<g id="Layer_4" display="none">
	<polygon display="inline" fill="#DD82B3" points="25.896,16.422 25.636,16.422 25.636,12.138 24.636,12.138 24.636,16.422 
		23.124,16.422 23.124,17.422 24.636,17.422 24.636,18.38 25.636,18.38 25.636,17.422 25.896,17.422 	"/>
</g>
<g id="Layer_8" display="none">
	<path display="inline" opacity="0.3" fill="#666765" d="M9,23.603v3.947l0.25,0.145c2.054,1.19,4.387,1.819,6.748,1.819
		s4.695-0.629,6.751-1.819l0.25-0.145v-9.059L9,23.603z"/>
	<g display="inline" opacity="0.3">
		<polygon fill="#666765" points="15.583,7.808 9.985,7.808 9.985,6.811 15.182,6.811 		"/>
		<polygon fill="#666765" points="16.805,6.811 21.984,6.811 21.984,7.808 16.393,7.808 		"/>
	</g>
	<rect x="15.484" y="4.041" display="inline" opacity="0.3" fill="#666765" width="1" height="1.303"/>
</g>
<g id="Layer_9" display="none">
	<rect x="20.049" y="10.013" display="inline" opacity="0.5" fill="#666765" width="4.405" height="2.643"/>
	<g display="inline">
		<path opacity="0.5" fill="#666765" d="M12.385,18.504l-1.819,0.004c-0.002,0.69-0.563,1.251-1.255,1.251
			c-0.686,0-1.242-0.555-1.251-1.239l-3.47,0.016v3.318c0,0.275,0.226,0.5,0.5,0.5h0.5h0.369h8.502
			C13.212,21.527,12.385,20.114,12.385,18.504z"/>
	</g>
	<g display="inline">
		<g opacity="0.5">
			<g>
				<path fill="#666765" d="M16.971,14.866c-2.009,0-3.638,1.628-3.638,3.638s1.629,3.639,3.638,3.639s3.638-1.629,3.638-3.639
					S18.979,14.866,16.971,14.866z M16.971,21.457c-1.631,0-2.953-1.322-2.953-2.953c0-1.632,1.322-2.954,2.953-2.954
					s2.953,1.322,2.953,2.954C19.924,20.135,18.602,21.457,16.971,21.457z"/>
			</g>
		</g>
	</g>
	<path display="inline" opacity="0.5" fill="#666765" d="M21.584,18.504c0,1.61-0.827,3.023-2.076,3.85h5.898h0.975h0.5
		c0.275,0,0.5-0.225,0.5-0.5v-3.318L21.584,18.504z"/>
	<g display="inline" opacity="0.5">
		<path fill="#666765" d="M15.879,20.696l0.167,0.083c0.286,0.116,0.597,0.184,0.925,0.184s0.64-0.067,0.926-0.184l0.162-0.08
			c0.048-0.024,0.095-0.05,0.141-0.077l-1.229-2.119l-1.229,2.119C15.787,20.648,15.832,20.673,15.879,20.696z"/>
	</g>
	<g display="inline">
		<path opacity="0.5" fill="#666765" d="M5.327,23.354l-0.007-0.25c-0.001-0.007-0.003-0.012-0.003-0.019L5.327,23.354z"/>
		<path opacity="0.5" fill="#666765" d="M26.627,22.935l-8.387-0.006c-0.396,0.111-0.808,0.19-1.24,0.19
			c-0.435,0-0.847-0.079-1.245-0.191l-10.44-0.006l0.006,0.182c0.006,0.267,0.146,0.481,0.32,0.481c0.086,0,0.162,0,0.22,0
			c0.062,0,0.104,0,0.104,0h19.855c0,0,0.094,0,0.229,0c0.049,0,0.102,0,0.159,0c0.214,0,0.389-0.225,0.389-0.5v0.269L26.627,22.935
			z"/>
	</g>
	<g display="inline">
		<path opacity="0.5" fill="#666765" d="M10.066,18.504c0-0.417-0.339-0.756-0.756-0.756c-0.416,0-0.754,0.339-0.754,0.756H10.066z"
			/>
	</g>
	<g display="inline">
		<path opacity="0.5" fill="#666765" d="M8.305,14.716c0-0.417-0.34-0.756-0.756-0.756s-0.754,0.339-0.754,0.756H8.305z"/>
	</g>
	<path display="inline" opacity="0.5" fill="#666765" d="M12.799,12.288v0.934h-1.854v-0.934H12.799 M13.299,11.788h-0.5h-1.854
		h-0.5v0.5v0.934v0.5h0.5h1.854h0.5v-0.5v-0.934V11.788L13.299,11.788z"/>
	<path display="inline" opacity="0.5" fill="#666765" d="M5.314,11.54v0.142h0.873v1.443l-0.873-0.016v0.007L4.59,13.109v0.279
		c0,0.275,0.191,0.5,0.424,0.5c0.1,0,0.188,0,0.261,0c0.017,0,0.025,0,0.04,0h0.014H6.39L6.376,11.54H5.314z"/>
	<path display="inline" opacity="0.5" fill="#666765" d="M25.75,13.141v-1.489h0.892l-0.038-0.198h-1.025v2.405h0.172h0.854
		c0,0,0.068,0,0.168,0c0.062,0,0.137,0,0.221,0c0.214,0,0.389-0.225,0.389-0.5v-0.233L25.75,13.141z"/>
	<rect x="6.545" y="9.126" display="inline" opacity="0.5" fill="#666765" width="0.674" height="1.555"/>
	<rect x="8.625" y="9.781" display="inline" opacity="0.5" fill="#666765" width="0.687" height="0.9"/>
	<rect x="9.566" y="9.781" display="inline" opacity="0.5" fill="#666765" width="0.688" height="0.9"/>
	<rect x="10.602" y="9.781" display="inline" opacity="0.5" fill="#666765" width="0.686" height="0.9"/>
</g>
<g id="Layer_10" display="none">
	<g display="inline">
		<g opacity="0.4">
			<path fill="#2D2D2D" d="M22.25,25.73c-0.183,0-0.362-0.009-0.541-0.027l0.102-0.994c0.602,0.061,1.217-0.005,1.791-0.193
				l0.311,0.951C23.377,25.642,22.817,25.73,22.25,25.73z M20.618,25.477c-0.713-0.229-1.36-0.6-1.925-1.102l0.666-0.746
				c0.458,0.408,0.984,0.709,1.563,0.895L20.618,25.477z M24.931,25.009l-0.504-0.863c0.521-0.304,0.982-0.722,1.336-1.21
				l0.811,0.588C26.132,24.131,25.579,24.631,24.931,25.009z M17.945,23.551c-0.446-0.605-0.754-1.285-0.913-2.02l0.977-0.213
				c0.13,0.597,0.38,1.148,0.741,1.641L17.945,23.551z M27.129,22.558l-0.914-0.406c0.248-0.556,0.373-1.148,0.373-1.763l1-0.058
				v0.058C27.588,21.145,27.434,21.874,27.129,22.558z M16.909,20.421v-0.032c0-0.744,0.149-1.463,0.445-2.137l0.916,0.402
				c-0.24,0.546-0.361,1.129-0.361,1.734L16.909,20.421z M26.483,19.438c-0.133-0.596-0.386-1.146-0.751-1.638l0.803-0.596
				c0.449,0.604,0.761,1.282,0.925,2.015L26.483,19.438z M18.719,17.866l-0.812-0.583c0.438-0.611,0.989-1.115,1.635-1.495
				l0.508,0.861C19.53,16.955,19.071,17.375,18.719,17.866z M25.117,17.135c-0.46-0.406-0.987-0.703-1.567-0.886l0.299-0.954
				c0.715,0.225,1.364,0.591,1.931,1.09L25.117,17.135z M20.872,16.273l-0.318-0.948c0.544-0.183,1.113-0.274,1.691-0.274
				c0.002,0,0.004,0,0.005,0c0.171,0,0.34,0.008,0.507,0.023l-0.094,0.996c-0.136-0.014-0.273-0.02-0.413-0.02
				c-0.001,0-0.003,0-0.004,0C21.774,16.051,21.312,16.125,20.872,16.273z"/>
		</g>
		<g opacity="0.4">
			<path fill="#2D2D2D" d="M15.344,17.844c-3.551-2-7.102,2-10.652,0c0-0.333,0-0.667,0-1c3.551,2,7.102-2,10.652,0
				C15.344,17.177,15.344,17.511,15.344,17.844z"/>
		</g>
		<g opacity="0.4">
			<path fill="#2D2D2D" d="M15.344,19.844c-3.551-2-7.102,2-10.652,0c0-0.333,0-0.667,0-1c3.551,2,7.102-2,10.652,0
				C15.344,19.177,15.344,19.511,15.344,19.844z"/>
		</g>
		<g opacity="0.4">
			<path fill="#2D2D2D" d="M15.344,21.844c-3.551-2-7.102,2-10.652,0c0-0.333,0-0.667,0-1c3.551,2,7.102-2,10.652,0
				C15.344,21.177,15.344,21.511,15.344,21.844z"/>
		</g>
		<g opacity="0.4">
			<path fill="#2D2D2D" d="M15.344,23.844c-3.551-2-7.102,2-10.652,0c0-0.333,0-0.667,0-1c3.551,2,7.102-2,10.652,0
				C15.344,23.177,15.344,23.511,15.344,23.844z"/>
		</g>
	</g>
</g>
<g id="Layer_11" display="none">
	<path display="inline" opacity="0.4" fill="#9B9A9A" d="M9.465,20.116l1.045,0.26l0.586,1.844l1.277,0.368l-1.88,0.621
		c0,0-0.111-0.572-0.526-0.986c-0.414-0.414-1.012-0.523-1.012-0.523L9.465,20.116z"/>
	<polygon display="inline" opacity="0.4" fill="#9B9A9A" points="19.241,12.244 20.979,13.979 13.086,21.874 11.792,21.502 
		11.355,20.133 	"/>
	
		<rect x="20.103" y="9.703" transform="matrix(-0.7077 0.7065 -0.7065 -0.7077 43.2695 5.4148)" display="inline" opacity="0.4" fill="#9B9A9A" width="0.824" height="3.91"/>
	
		<rect x="20.233" y="8.909" transform="matrix(-0.7077 -0.7065 0.7065 -0.7077 30.8422 32.7261)" display="inline" opacity="0.4" fill="#9B9A9A" width="3.915" height="2.15"/>
</g>
<g id="Layer_12" display="none">
	<polygon display="inline" opacity="0.4" fill="#666765" points="5.055,16.475 15.291,26.691 11.6,25.187 6.252,19.841 	"/>
	<polygon display="inline" opacity="0.4" fill="#666765" points="21.999,10.98 22.757,11.738 24.536,9.366 23.942,8.806 	"/>
	<polygon display="inline" opacity="0.4" fill="#666765" points="21.011,12.727 18.572,15.505 12.703,22.793 14.898,25.331 
		19.363,16.219 21.848,13.502 	"/>
	<polygon display="inline" opacity="0.4" fill="#666765" points="5.77,21.444 5.92,22.686 9.284,26.104 10.326,26.002 	"/>
	<polygon display="inline" opacity="0.4" fill="#666765" points="6.459,24.862 6.619,24.705 5.554,23.617 5.385,23.786 	"/>
</g>
<g id="Layer_13" display="none">
	<path display="inline" opacity="0.5" fill="#666765" d="M25.661,6.621h-0.02H6.328H6.308c-0.55,0-1,0.45-1,1v17.362
		c0,0.55,0.45,1,1,1h19.354c0.55,0,1-0.45,1-1V7.621C26.661,7.071,26.211,6.621,25.661,6.621z M25.642,7.621v3.854H6.328V7.621
		H25.642z M6.328,24.658V12.252h19.313v12.406H6.328z"/>
	<polygon display="inline" opacity="0.5" fill="#666765" points="25.208,24.25 6.625,24.25 6.625,23.487 25.208,13.501 	"/>
</g>
<g id="Layer_14" display="none">
	<path display="inline" opacity="0.5" fill="#9B9A9A" d="M6.175,19.644c1.488,4.051,5.368,6.945,9.936,6.945
		c5.849,0,10.593-4.742,10.593-10.593c0-1.271-0.235-2.483-0.646-3.612L6.175,19.644z"/>
</g>
<g id="Layer_15" display="none">
	<path display="inline" opacity="0.5" fill="#666765" d="M5.332,22.337v0.192c0,0.55,0.451,1,1,1h19.305c0.55,0,1-0.45,1-1v-7.97
		L5.332,22.337z"/>
</g>
<g id="Layer_16" display="none">
	<path display="inline" fill="#666765" d="M14.75,11.938v10.75H7.875v-10.75H14.75 M15.75,10.938H6.875v12.75h8.875V10.938
		L15.75,10.938z"/>
	<g display="inline">
		<rect x="16.565" y="10.938" fill="#666765" width="8.746" height="5.969"/>
	</g>
	<g display="inline">
		<rect x="16.565" y="17.812" fill="#666765" width="8.746" height="5.875"/>
	</g>
</g>
<g id="Layer_17" display="none">
	<g display="inline" opacity="0.5">
		<path fill="#9B9A9A" d="M21.766,21.322c0.274-0.694,0.43-1.448,0.43-2.24c0-3.363-2.727-6.091-6.09-6.091
			c-3.365,0-6.092,2.728-6.092,6.091c0,0.792,0.156,1.546,0.431,2.24H21.766z"/>
	</g>
</g>
<g id="Layer_18" display="none">
	<rect x="13.797" y="16" display="inline" opacity="0.3" fill="#9B9A9A" width="4.406" height="5.324"/>
	<rect x="20.775" y="15.997" display="inline" opacity="0.3" fill="#9B9A9A" width="4.407" height="5.327"/>
	<rect x="6.734" y="15.997" display="inline" opacity="0.3" fill="#9B9A9A" width="4.406" height="5.327"/>
	<rect x="5.328" y="22.497" display="inline" opacity="0.3" fill="#9B9A9A" width="21.314" height="2.003"/>
</g>
<g id="Layer_19">
	<path fill="#2D2D2D" d="M15.984,4.904c-6.117,0-11.094,4.977-11.094,11.094c0,6.116,4.977,11.093,11.094,11.093
		s11.094-4.977,11.094-11.093C27.078,9.881,22.102,4.904,15.984,4.904z M15.984,21.543c-3.059,0-5.548-2.488-5.548-5.546
		c0-0.82,0.175-1.608,0.518-2.344c0.909-1.947,2.882-3.205,5.028-3.205h0.002c3.059,0,5.547,2.489,5.547,5.549
		C21.531,19.055,19.043,21.543,15.984,21.543z M22.105,13.695l3.223-1.502c0.48,1.175,0.75,2.458,0.75,3.805s-0.27,2.63-0.751,3.806
		l-3.223-1.503c0.271-0.718,0.427-1.492,0.427-2.304C22.531,15.187,22.376,14.413,22.105,13.695z M24.904,11.287l-3.219,1.501
		c-0.588-1.04-1.449-1.903-2.489-2.491l1.501-3.219C22.486,8.028,23.956,9.498,24.904,11.287z M19.791,6.655l-1.501,3.22
		c-0.719-0.272-1.495-0.428-2.308-0.428c-0.799,0-1.57,0.163-2.295,0.437l-1.506-3.23c1.175-0.48,2.457-0.75,3.803-0.75
		C17.332,5.904,18.615,6.174,19.791,6.655z M11.275,7.077l1.506,3.229c-1.029,0.58-1.894,1.432-2.488,2.485l-3.229-1.505
		C8.014,9.497,9.484,8.026,11.275,7.077z M6.642,12.193l3.22,1.501c-0.277,0.734-0.425,1.505-0.425,2.303
		c0,0.812,0.155,1.586,0.427,2.305l-3.222,1.502c-0.48-1.176-0.751-2.459-0.751-3.806S6.161,13.368,6.642,12.193z M7.064,20.71
		l3.221-1.502c0.588,1.04,1.451,1.902,2.492,2.49l-1.502,3.22C9.484,23.969,8.015,22.499,7.064,20.71z M12.181,25.341l1.503-3.223
		c0.717,0.271,1.49,0.425,2.301,0.425c0.812,0,1.586-0.155,2.304-0.427l1.503,3.224c-1.176,0.481-2.459,0.751-3.807,0.751
		C14.639,26.091,13.355,25.821,12.181,25.341z M20.696,24.917l-1.501-3.222c1.038-0.588,1.9-1.449,2.488-2.488l3.221,1.502
		C23.955,22.498,22.486,23.968,20.696,24.917z"/>
</g>
<g id="Layer_20" display="none">
	<circle display="inline" fill="#2D2D2D" cx="15.985" cy="26.736" r="1.012"/>
	<g display="inline">
		<path fill="#2D2D2D" d="M21.395,3.061H10.576c-0.646,0-1.17,0.525-1.17,1.17v23.621c0,0.646,0.524,1.171,1.17,1.171h10.818
			c0.646,0,1.17-0.525,1.17-1.171V4.23C22.564,3.585,22.04,3.061,21.395,3.061z M10.406,7.625h11.158v16.438H10.406V7.625z
			 M10.576,4.061h10.818c0.094,0,0.17,0.076,0.17,0.17v2.395H10.406V4.23C10.406,4.137,10.482,4.061,10.576,4.061z M21.395,28.022
			H10.576c-0.094,0-0.17-0.077-0.17-0.171v-2.789h11.158v2.789C21.564,27.945,21.488,28.022,21.395,28.022z"/>
		<rect x="14.96" y="4.844" fill="#2D2D2D" width="2.481" height="1"/>
	</g>
</g>
<g id="Layer_21" display="none">
	<path display="inline" fill="#DD82B3" d="M15.499,15.191L15.488,5.43c-3.502,0.166-6.562,1.998-8.383,4.727L15.499,15.191z"/>
</g>
<g id="Layer_22" display="none">
	<polygon display="inline" opacity="0.3" fill="#5D5E5E" points="23.028,18.986 23.028,18.156 16.892,21.24 16.892,21.252 
		15.363,20.5 15.363,20.524 15.362,20.524 15.362,16.417 13.822,17.184 13.822,17.242 13.821,17.178 12.306,16.432 12.306,15.105 
		10.014,16.247 10.014,16.234 8.091,15.287 8.091,15.287 8.088,15.286 7.722,15.105 7.722,15.131 7.704,15.123 7.699,13.962 
		6.944,14.336 6.944,14.347 5.429,13.602 5.429,19.35 6.945,20.096 6.945,20.111 7.375,19.897 7.375,19.897 7.722,19.796 
		7.722,21.639 10.014,22.77 12.294,21.625 12.294,22.779 13.821,23.529 13.895,23.494 14.873,23.009 15.363,22.849 15.363,24.307 
		16.892,25.057 23.028,22 23.028,21.244 24.534,21.982 24.534,19.725 	"/>
</g>
</svg>
